<?xml version="1.0" encoding="utf-8"?>
<!-- Generator: Adobe Illustrator 22.0.1, SVG Export Plug-In . SVG Version: 6.00 Build 0)  -->
<svg version="1.1" id="Layer_1" xmlns="http://www.w3.org/2000/svg" xmlns:xlink="http://www.w3.org/1999/xlink" x="0px" y="0px"
	 viewBox="0 0 100 100" style="enable-background:new 0 0 100 100;" xml:space="preserve">
<style type="text/css">
	.st0{fill:#FFFFFF;}
</style>
<g>
	<path class="st0" d="M84.57887,50.29206l1.46078-0.00562l-0.03124-8.98969L84.5469,41.301v-0.18558l7.5243-0.02815l0.00706,2.27487
		l-0.14799,0.00137c-0.11174-0.33884-0.23793-0.63966-0.37081-0.89557c-0.13325-0.26008-0.2914-0.47805-0.47733-0.65657
		c-0.18169-0.17996-0.40282-0.31495-0.65794-0.39793c-0.2531-0.08998-0.55961-0.12928-0.91601-0.12793l-2.18452,0.00562
		l0.01375,4.06182l0.85583-0.00425c0.28722,0,0.53075-0.02807,0.73216-0.08012c0.20566-0.05486,0.37331-0.15181,0.51807-0.29946
		c0.14411-0.14059,0.26714-0.34027,0.36906-0.59193c0.09353-0.24741,0.19688-0.56796,0.28895-0.96726l0.1452-0.00144
		l0.01548,4.08997h-0.148c-0.06119-0.2531-0.12619-0.49633-0.18702-0.73532c-0.06889-0.23481-0.16023-0.44573-0.28009-0.62706
		c-0.12302-0.18702-0.277-0.33185-0.47769-0.44285c-0.19825-0.1069-0.44991-0.16312-0.76729-0.16175l-1.06466,0.00144
		l0.01476,4.75215l2.48959-0.00985c0.4787-0.00144,0.87908-0.10546,1.19963-0.31076
		c0.31666-0.20386,0.57465-0.45127,0.77852-0.73806c0.20035-0.28686,0.34797-0.58488,0.44465-0.88858
		c0.09423-0.30795,0.15606-0.56522,0.17753-0.76484h0.15045l0.00941,2.87515l-8.02236,0.02815L84.57887,50.29206z"/>
	<path class="st0" d="M17.43889,57.75488l-0.08572-16.52983h-0.12584c0,0-7.84139,15.61037-8.27726,16.42999
		c-0.52866,1.00246-1.49483,0.81969-1.49483,0.81969c-0.15924,0.74799,0.06463,0.62281,0.06463,0.62281l3.81896-0.0126
		c0.91456,0.03513,0.45378-0.29103,0.45378-0.29103c-0.6334-0.35431-0.8605-0.78032-0.8605-0.78032
		c-0.98801-1.63794,0.42535-1.2457,0.42535-1.2457c1.53601,0.17154,5.05435,2.30014,5.05435,2.30014l2.34801-0.00842
		l-0.00216-0.53146C17.38052,58.72078,17.43889,57.75488,17.43889,57.75488 M15.66526,55.9089c0,0-0.44955,1.25693-2.77178,0.44846
		l-1.10402-0.45552l3.66949-7.81713c0,0,0.04046-0.08157,0.07666,0.08012C15.58197,48.335,16.11516,52.29835,15.66526,55.9089"/>
	<path class="st0" d="M19.27681,50.51284l1.4587-0.00562l-0.03059-8.98833l-1.45618,0.00425l-0.00252-0.18558l2.44957-0.00842
		c0.11633,0,0.24677-0.00425,0.36345-0.00705c0.12123-0.00986,0.24705-0.01973,0.37079-0.02815
		c0.12158,0,0.24144-0.00281,0.36626-0.00843c0.1223-0.00424,0.24813-0.0056,0.36698-0.00705
		c0.26534,0,0.4949,0.00144,0.70329,0.0113c0.20703,0.00698,0.40067,0.02526,0.58034,0.04355
		c0.17924,0.02253,0.34797,0.05485,0.5103,0.09142c0.16103,0.03794,0.33502,0.08998,0.5206,0.14901
		c0.53211,0.1729,0.99994,0.40916,1.38974,0.69732c0.38879,0.29672,0.71078,0.63131,0.96028,1.01794
		c0.25029,0.38526,0.43659,0.80558,0.55817,1.26118c0.12165,0.45407,0.1814,0.93493,0.18212,1.43264
		c0.00174,0.57926-0.06543,1.10223-0.20249,1.562c-0.14201,0.46394-0.33493,0.86749-0.57293,1.22741
		c-0.24957,0.35568-0.53391,0.66363-0.86115,0.91946c-0.32933,0.26433-0.67939,0.47524-1.05904,0.63556
		c-0.20559,0.0956-0.407,0.1701-0.59503,0.2207c-0.18736,0.05341-0.37785,0.09279-0.58034,0.1223
		c-0.19263,0.0239-0.41089,0.04499-0.6457,0.05486c-0.24007,0.00985-0.51001,0.01267-0.82034,0.01548
		c-0.12547,0-0.26541-0.00281-0.41651-0.00281c-0.148-0.00706-0.29492-0.01548-0.44537-0.02253
		c-0.14692-0.00562-0.29665-0.01684-0.44112-0.01548c-0.14267-0.00842-0.28153-0.0126-0.41542-0.01123l-2.23232,0.00706
		L19.27681,50.51284z M22.04866,50.50154c0.15289,0.02108,0.3258,0.0352,0.52197,0.03938
		c0.19615,0.00562,0.41577,0.00986,0.65095,0.00986c0.29737,0,0.5933-0.01684,0.88613-0.04643
		c0.29449-0.02951,0.57358-0.10122,0.84287-0.19681c0.26678-0.10402,0.51563-0.2531,0.74656-0.44004
		c0.23231-0.18702,0.44076-0.43587,0.62391-0.74519c0.27691-0.47237,0.47099-0.95747,0.57781-1.45517
		c0.10791-0.49771,0.16485-1.03896,0.16312-1.62384c0-0.69595-0.07386-1.32021-0.20703-1.88399
		c-0.13116-0.56659-0.35078-1.04882-0.64959-1.45093c-0.31141-0.39513-0.71423-0.70301-1.21086-0.91809
		c-0.50259-0.21653-1.12052-0.32616-1.85548-0.32199c-0.2197,0-0.42284,0.00561-0.59827,0.01267
		c-0.17852,0.00986-0.35467,0.02109-0.52304,0.02814L22.04866,50.50154z"/>
	<polygon class="st0" points="28.88371,41.30662 32.94798,41.29114 32.94726,41.47535 31.48826,41.48096 34.43266,49.09143 
		37.2896,41.46124 35.85969,41.46692 35.85905,41.28416 38.69906,41.27285 38.70043,41.45707 37.5103,41.46124 34.00284,50.839 
		33.67451,50.84181 30.06931,41.48802 28.88371,41.48939 	"/>
	<path class="st0" d="M37.09308,50.45237l1.16659-0.00425l3.51142-9.42693l0.32127-0.00137l3.61148,9.40303l1.16695-0.00425
		l0.00216,0.18421l-4.05268,0.0126l-0.00243-0.18278l1.46322-0.00416l-1.39859-3.64705l-3.05056,0.00979l-1.36621,3.65554
		l1.46079-0.00425l0.00065,0.18277l-2.83124,0.00986L37.09308,50.45237z M41.34328,42.77165l-1.42984,3.82701l2.89243-0.00144
		L41.34328,42.77165z"/>
	<polygon class="st0" points="47.13549,50.41861 48.59103,50.41299 48.56186,41.42474 47.10424,41.42892 47.10424,41.24197 
		49.91755,41.23067 54.38918,48.38842 54.41308,48.38137 54.38983,41.40365 52.9312,41.40783 52.93192,41.22088 56.04887,41.21102 
		56.04958,41.39804 54.58881,41.40365 54.62076,50.76025 54.35895,50.76169 48.79243,41.95758 48.76291,41.95901 48.78991,50.41156 
		50.25322,50.40738 50.25388,50.58871 47.13621,50.60282 	"/>
	<path class="st0" d="M58.73217,50.37923l1.46079-0.00698l-0.03024-8.98833l-0.76412,0.00144
		c-0.17507,0.00281-0.37049,0.02108-0.59085,0.04916c-0.21898,0.03377-0.44148,0.11814-0.66226,0.26297
		c-0.22531,0.13914-0.44285,0.35712-0.64562,0.66356c-0.20704,0.30234-0.38002,0.72273-0.52621,1.25693h-0.14521l-0.00734-2.4084
		l7.99004-0.02671l0.00914,2.4084h-0.14483c-0.14656-0.53565-0.3279-0.95042-0.53745-1.25268
		c-0.20629-0.30371-0.4214-0.52024-0.6439-0.66082c-0.22532-0.14195-0.44818-0.22495-0.66924-0.25727
		c-0.21581-0.02671-0.41615-0.045-0.59013-0.04218l-0.75851,0.00144l0.0288,8.98825l1.45798-0.00425l0.00209,0.1814
		l-4.23293,0.01548V50.37923z"/>
	<path class="st0" d="M64.35103,50.35958l1.15745-0.00425l3.51423-9.42412l0.31566-0.00418l3.61184,9.40304l1.16803-0.00569v0.18284
		l-4.04916,0.01683v-0.1842l1.46216-0.00417l-1.39398-3.64705l-3.05123,0.00698l-1.36872,3.65835l1.46151-0.00281l0.00209,0.18277
		l-2.82987,0.00698V50.35958z M68.59987,42.67743l-1.43481,3.82981l2.88962-0.00282L68.59987,42.67743z"/>
	<path class="st0" d="M83.88543,47.12163l-1.05522,0.0028l0.0095,2.98486l-0.15498,0.00281
		c-0.09631-0.09697-0.17607-0.16304-0.23654-0.194c-0.06572-0.03793-0.15995-0.05486-0.29211-0.05486
		c-0.15779,0-0.31422,0.04219-0.47662,0.12936c-0.16628,0.08293-0.35287,0.17572-0.57084,0.28117
		c-0.20876,0.1069-0.46114,0.20105-0.75109,0.28261c-0.29176,0.08717-0.64397,0.12936-1.0545,0.1308
		c-0.62354,0.00281-1.17537-0.09984-1.66285-0.30651c-0.47878-0.19825-0.94588-0.52441-1.39824-0.97014
		c-0.43407-0.43724-0.79996-0.95322-1.09135-1.55214c-0.29004-0.59049-0.43407-1.25837-0.43797-2.00212
		c-0.00245-0.50195,0.05515-0.95322,0.16557-1.35389c0.1128-0.39795,0.24741-0.74519,0.40808-1.04328
		c0.16096-0.29946,0.32653-0.5455,0.50088-0.74936c0.16621-0.20386,0.30543-0.3641,0.41895-0.47798
		c0.39333-0.39368,0.84251-0.71567,1.35361-0.96172c0.50749-0.24885,1.08675-0.37541,1.73671-0.37541
		c0.33105-0.00136,0.60561,0.02391,0.8207,0.07595c0.21653,0.0506,0.40419,0.10963,0.55917,0.17715
		c0.16068,0.06745,0.30653,0.12511,0.43026,0.17715c0.12827,0.05203,0.27347,0.07875,0.42773,0.07875
		c0.1737-0.00281,0.29916-0.02672,0.37475-0.0745c0.07307-0.04787,0.14548-0.11532,0.21826-0.20393h0.19997l0.00878,2.62918
		l-0.15045-0.00281c-0.03548-0.22639-0.10645-0.49209-0.2035-0.7986c-0.10265-0.30651-0.26253-0.60035-0.47733-0.87872
		c-0.21581-0.28117-0.50368-0.51737-0.85727-0.70862c-0.35712-0.19544-0.81436-0.29104-1.36411-0.2896
		c-0.66082,0.00138-1.18314,0.14484-1.58626,0.42039c-0.39758,0.27974-0.70898,0.64111-0.92902,1.09526
		c-0.22072,0.45271-0.37254,0.96302-0.44286,1.53529c-0.0717,0.5694-0.10899,1.14024-0.10683,1.72224
		c0.00209,0.39513,0.0221,0.78881,0.0583,1.18243c0.03693,0.39224,0.0956,0.76628,0.1796,1.11497
		c0.08617,0.35143,0.2053,0.67623,0.35431,0.97151c0.15081,0.29802,0.3438,0.55392,0.58171,0.76059
		c0.26649,0.23899,0.53708,0.3993,0.81618,0.48784c0.2777,0.09279,0.64426,0.13922,1.09451,0.13778
		c0.26894-0.00137,0.54026-0.0478,0.81236-0.14339c0.27274-0.09135,0.51453-0.23193,0.72718-0.41334
		c0.21825-0.18421,0.38943-0.42039,0.52621-0.70437c0.13533-0.28679,0.20314-0.62144,0.20171-1.01232l-0.0049-1.10087
		l-1.69489,0.00424l-0.00072-0.18132l4.01294-0.01548L83.88543,47.12163z"/>
	<path class="st0" d="M23.57978,58.06845l0.73108-0.00281l-0.01474-4.49625l-0.73325,0.00137l0.0018-0.08998l1.15816-0.00418
		c0.05975,0,0.12685-0.00288,0.19119-0.00425c0.07171-0.00562,0.13569-0.00843,0.2084-0.01267
		c0.07314,0,0.1385-0.00418,0.20703-0.00705c0.06084-0.00137,0.12655-0.00137,0.18738-0.00281
		c0.32193,0,0.58589,0.03657,0.78946,0.11107c0.20631,0.08019,0.36835,0.17297,0.48928,0.28261
		c0.11244,0.11251,0.19364,0.23338,0.24072,0.36136c0.04715,0.12655,0.06716,0.24604,0.06853,0.35151
		c-0.00065,0.14339-0.0344,0.27836-0.09732,0.40347c-0.06471,0.11813-0.14692,0.22776-0.25202,0.32055
		c-0.10826,0.09423-0.23237,0.16873-0.37051,0.22776c-0.13987,0.05484-0.2885,0.09279-0.44494,0.11107v0.01404
		c0.15707,0.00986,0.32228,0.04643,0.48469,0.10265c0.16382,0.05061,0.31075,0.1308,0.44744,0.22495
		c0.13425,0.10265,0.23935,0.22359,0.32969,0.36698c0.07487,0.14483,0.11741,0.31068,0.11878,0.49907
		c0,0.19688-0.03549,0.38102-0.10474,0.54277c-0.07767,0.16449-0.18802,0.30644-0.33286,0.42457
		c-0.14973,0.12093-0.33351,0.21653-0.56515,0.28398c-0.22956,0.07033-0.48791,0.10265-0.79335,0.10265
		c-0.05903,0-0.11912,0-0.17815-0.00705c-0.06257,0.0028-0.12411,0-0.18876-0.00138
		c-0.06435-0.00841-0.13432-0.00985-0.20249-0.01403c-0.06853-0.00425-0.14483-0.00281-0.22178-0.00281l-1.15291,0.00281
		L23.57978,58.06845z M24.96002,55.59958l0.60251-0.00144c0.12511,0,0.23582-0.01828,0.33034-0.04499
		c0.10265-0.03657,0.18983-0.08998,0.26152-0.16729c0.07314-0.07731,0.12799-0.17996,0.16484-0.30932
		c0.045-0.13353,0.06012-0.3037,0.06012-0.49914c0-0.22913-0.03125-0.41471-0.08819-0.55112
		c-0.06081-0.14059-0.14131-0.2418-0.23273-0.31213c-0.09243-0.06889-0.20241-0.11388-0.31213-0.13778
		c-0.1195-0.02109-0.23755-0.03513-0.34409-0.03376c-0.08156,0-0.1606,0.00705-0.24324,0.00849
		c-0.08221,0.00136-0.14446,0.00842-0.20595,0.01685L24.96002,55.59958z M24.96989,58.0642
		c0.0534,0.00144,0.10688,0.00562,0.17261,0.01548c0.05903,0.00562,0.15426,0.00986,0.27311,0.00986
		c0.20559-0.00288,0.38131-0.0239,0.52578-0.06047c0.14339-0.04218,0.26642-0.11251,0.35784-0.21236
		c0.09315-0.0956,0.16413-0.22776,0.20667-0.3908c0.04218-0.16168,0.06183-0.36554,0.06083-0.60878
		c-0.00072-0.35294-0.07069-0.62987-0.22531-0.82956c-0.14303-0.20105-0.36517-0.30227-0.66255-0.29946h-0.71884L24.96989,58.0642z"
		/>
	<path class="st0" d="M31.13078,58.0403l0.72654-0.00144l-0.0144-4.49481l-0.72827,0.00144v-0.08998l3.75812-0.01411
		l0.00453,1.13887h-0.0745c-0.05486-0.17435-0.11316-0.32062-0.18241-0.45135c-0.06507-0.12656-0.14728-0.23762-0.2387-0.32616
		c-0.09315-0.08998-0.20386-0.1575-0.33005-0.20105c-0.12864-0.04218-0.28571-0.06608-0.46114-0.06471l-1.09381,0.00425
		l0.00806,2.033l0.42673-0.00281c0.14267,0,0.26851-0.01123,0.3708-0.03794c0.09777-0.03231,0.18666-0.07874,0.25835-0.15189
		c0.07206-0.07169,0.12828-0.1729,0.18313-0.2952c0.04816-0.12375,0.09703-0.28686,0.14483-0.48223h0.07487l0.00842,2.04143
		h-0.07695c-0.02887-0.12792-0.064-0.24749-0.09351-0.36835c-0.03549-0.11533-0.08019-0.21934-0.14167-0.31493
		c-0.05766-0.09423-0.1385-0.16593-0.23373-0.21797c-0.10438-0.05622-0.23446-0.08149-0.38908-0.08149l-0.52974,0.00137
		l0.00562,2.37464l1.24678-0.00561c0.24144,0,0.4404-0.04917,0.60001-0.15182c0.15533-0.10546,0.29131-0.2292,0.38482-0.37259
		c0.10265-0.14059,0.18104-0.29103,0.22812-0.44711c0.04607-0.15045,0.07558-0.28116,0.08963-0.37957h0.07348l0.00454,1.43689
		l-4.01049,0.01548L31.13078,58.0403z"/>
	<polygon class="st0" points="38.85685,58.01777 39.58131,58.0136 39.56511,53.51591 38.83965,53.52015 38.83965,53.42873 
		40.24594,53.42456 42.48352,56.9999 42.49475,56.99429 42.48215,53.50611 41.7528,53.50892 41.75137,53.4175 43.30919,53.4147 
		43.30919,53.50331 42.57912,53.50611 42.5946,58.18513 42.46279,58.18513 39.67899,53.78448 39.66668,53.78585 39.68108,58.0136 
		40.41115,58.01079 40.41223,58.10214 38.85685,58.10775 	"/>
	<path class="st0" d="M46.82164,57.98689l0.72754-0.00144l-0.01476-4.49625l-0.72971,0.0028v-0.09134l3.76447-0.01267
		l0.00243,1.13743h-0.0727c-0.05874-0.17298-0.1213-0.32055-0.18312-0.44854c-0.06718-0.12792-0.14874-0.23899-0.24152-0.32897
		c-0.09415-0.08717-0.19925-0.15606-0.32825-0.19825c-0.12828-0.04355-0.28153-0.06464-0.46222-0.06464l-1.09244,0.00137
		l0.00741,2.03444l0.42601-0.00281c0.14901,0.00137,0.26778-0.00986,0.37044-0.03938
		c0.09948-0.02951,0.18486-0.07875,0.25835-0.14764c0.07659-0.0745,0.13324-0.17435,0.18313-0.29665
		c0.05342-0.12511,0.10265-0.2896,0.14485-0.48367h0.07305l0.00741,2.04286h-0.07278
		c-0.02707-0.12936-0.06047-0.24885-0.09423-0.36972c-0.03196-0.11675-0.08149-0.21933-0.14093-0.31211
		c-0.05831-0.0956-0.13743-0.16593-0.2372-0.22078c-0.09776-0.05478-0.22747-0.08293-0.38454-0.08156l-0.53499,0.00281
		l0.0095,2.3719l1.24073-0.00425c0.24569,0,0.44783-0.04917,0.60352-0.15182c0.16096-0.10691,0.28996-0.23057,0.39296-0.37259
		c0.09596-0.14203,0.17154-0.29103,0.22351-0.4471c0.04715-0.15045,0.07666-0.28117,0.08617-0.37821h0.07378l0.00562,1.43552
		l-4.01149,0.01404V57.98689z"/>
	<path class="st0" d="M54.606,57.96154l0.73324-0.00136l-0.01512-4.4977l-0.73324,0.00282l0.00108-0.08998l3.7592-0.01404
		l0.00418,1.13599H58.2858c-0.05802-0.17154-0.11921-0.31911-0.18628-0.44847c-0.0661-0.12518-0.14629-0.23906-0.24043-0.32904
		c-0.08964-0.0843-0.19934-0.15743-0.32618-0.19538c-0.13044-0.04498-0.28016-0.06888-0.46402-0.06751l-1.08675,0.00425
		l0.00454,2.12579h0.4309c0.13994-0.00144,0.26649-0.00986,0.36626-0.03513c0.1013-0.02815,0.18457-0.08156,0.25799-0.1547
		c0.07206-0.07026,0.13432-0.16729,0.18241-0.29521c0.05276-0.12094,0.09776-0.28686,0.14764-0.48086l0.07421-0.00144
		l0.00772,2.0443l-0.07414,0.00281c-0.02924-0.12936-0.06473-0.25447-0.09849-0.36979
		c-0.03124-0.11805-0.08184-0.22496-0.13842-0.3163c-0.06155-0.09423-0.13922-0.16593-0.23518-0.22078
		c-0.10157-0.05478-0.22776-0.08156-0.38591-0.08012l-0.53255,0.0028l0.00669,2.27625l0.73216-0.00281v0.08861L54.606,58.05434
		V57.96154z"/>
	<polygon class="st0" points="62.16693,57.93484 62.89485,57.93484 62.8811,53.43859 62.15146,53.4414 62.15146,53.35005 
		64.26882,53.34163 64.26954,53.43297 63.53803,53.43579 63.55387,57.93067 64.28603,57.92923 64.28603,58.02065 62.16758,58.02626 
			"/>
	<path class="st0" d="M68.8431,57.91519l0.73144-0.00425l-0.01511-4.49481l-0.38274,0.00281
		c-0.08753-0.00281-0.186,0.00979-0.29773,0.02246c-0.10545,0.01548-0.21581,0.0591-0.33041,0.12936
		c-0.1097,0.06889-0.21581,0.1814-0.32127,0.33322c-0.10193,0.14901-0.18982,0.36137-0.26188,0.62706l-0.07377,0.00281
		l-0.00282-1.20351l3.99927-0.01404l0.00244,1.20351h-0.07278c-0.07659-0.26577-0.16346-0.4738-0.27275-0.62569
		c-0.09912-0.15182-0.20847-0.26433-0.32198-0.33322c-0.10717-0.07026-0.22143-0.10963-0.33006-0.12649
		c-0.10545-0.01547-0.20314-0.02389-0.29456-0.02252h-0.38065l0.0162,4.49769l0.72691-0.00288v0.09142l-2.11708,0.00705
		L68.8431,57.91519z"/>
	<path class="st0" d="M75.79836,56.56684h0.07767c0.04111,0.23763,0.10827,0.43442,0.1845,0.59899
		c0.07558,0.16168,0.16031,0.29384,0.25799,0.39786c0.08617,0.10546,0.18702,0.18702,0.28297,0.24324
		c0.10121,0.05903,0.20314,0.0984,0.30968,0.12374c0.09985,0.02527,0.19962,0.04499,0.29458,0.0478
		c0.08998,0.00137,0.1824,0.00562,0.2646,0.00562c0.23093-0.00281,0.42358-0.0352,0.56976-0.10546
		c0.15117-0.07594,0.26469-0.16312,0.3515-0.27275c0.08789-0.10546,0.15117-0.22359,0.18313-0.34589
		c0.03765-0.12792,0.05593-0.24043,0.05486-0.34727c-0.00072-0.15181-0.03023-0.2826-0.08755-0.39648
		c-0.05939-0.10682-0.13072-0.20243-0.21825-0.27555c-0.08717-0.07595-0.18558-0.13779-0.28686-0.18839
		c-0.10438-0.04218-0.1989-0.08019-0.29414-0.11107l-0.75289-0.22495c-0.35855-0.11107-0.6208-0.25166-0.80457-0.43306
		c-0.18665-0.17715-0.27275-0.41758-0.27347-0.71985c-0.00072-0.19681,0.03269-0.38103,0.09984-0.55112
		c0.07098-0.16449,0.16866-0.31356,0.2924-0.43587c0.12727-0.12374,0.28053-0.22071,0.4566-0.29241
		c0.17715-0.07032,0.37187-0.10826,0.58134-0.10826c0.15326,0,0.28082,0.01267,0.38454,0.04218
		c0.10301,0.02527,0.18839,0.05478,0.26433,0.08574c0.07587,0.03657,0.13915,0.0619,0.20177,0.08998
		c0.06113,0.02534,0.12122,0.03513,0.18241,0.03513c0.05796-0.00137,0.0938-0.00418,0.11208-0.02109
		c0.01691-0.01541,0.0496-0.05478,0.08228-0.11388h0.09207l0.00562,1.19085h-0.08401
		c-0.02282-0.15606-0.0699-0.31069-0.13245-0.45833c-0.0658-0.14901-0.14591-0.27693-0.24957-0.38944
		c-0.10056-0.10963-0.22114-0.19962-0.36453-0.26434c-0.14447-0.07025-0.30615-0.10401-0.49454-0.1012
		c-0.1068,0-0.22739,0.01548-0.3497,0.04073c-0.12547,0.02959-0.24043,0.07739-0.35639,0.15045
		c-0.10301,0.07171-0.19408,0.16032-0.26685,0.2742c-0.07515,0.11806-0.10819,0.26289-0.10819,0.43724
		c0,0.14059,0.0316,0.25727,0.0882,0.36137c0.05729,0.09279,0.12934,0.17427,0.21896,0.2446
		c0.09071,0.06745,0.18983,0.12511,0.30653,0.16873c0.10753,0.04917,0.22041,0.08854,0.33709,0.1223l0.79536,0.24604
		c0.08121,0.0239,0.19263,0.06184,0.31493,0.10402c0.13007,0.04643,0.25274,0.10546,0.37439,0.19407
		c0.12267,0.08998,0.22243,0.20386,0.30579,0.34726c0.08782,0.14764,0.13181,0.3276,0.13109,0.55392
		c0.00137,0.20387-0.03693,0.40211-0.10934,0.5905c-0.07451,0.18421-0.18658,0.34869-0.33322,0.49209
		c-0.14267,0.14483-0.31558,0.25727-0.52612,0.34445c-0.20143,0.08717-0.42883,0.13216-0.69424,0.13216
		c-0.09099,0-0.16938,0-0.23935-0.00562c-0.07204-0.00281-0.1367-0.00562-0.19825-0.01404
		c-0.06111-0.00705-0.12475-0.01548-0.18313-0.02951c-0.06427-0.0113-0.129-0.02671-0.20386-0.04643
		c-0.08537-0.02527-0.18032-0.05341-0.28542-0.09416c-0.0966-0.03376-0.18414-0.05204-0.2608-0.04924
		c-0.06327,0-0.10646,0.01404-0.13562,0.03938c-0.02073,0.0267-0.04182,0.06327-0.0601,0.10546h-0.10128L75.79836,56.56684z"/>
</g>
</svg>
