<?xml version="1.0" encoding="utf-8"?>
<!-- Generator: Adobe Illustrator 22.0.1, SVG Export Plug-In . SVG Version: 6.00 Build 0)  -->
<svg version="1.1" id="Layer_1" xmlns="http://www.w3.org/2000/svg" xmlns:xlink="http://www.w3.org/1999/xlink" x="0px" y="0px"
	 viewBox="0 0 100 100" style="enable-background:new 0 0 100 100;" xml:space="preserve">
<style type="text/css">
	.st0{fill:#FFFFFF;stroke:#FFFFFF;stroke-width:0.05669;stroke-linecap:round;stroke-linejoin:round;}
	.st1{fill-rule:evenodd;clip-rule:evenodd;fill:#FFFFFF;}
	.st2{fill:#FFFFFF;}
<!-- 	.st3{fill-rule:evenodd;clip-rule:evenodd;fill:#ED1C2E;} -->
    .st3{fill-rule:evenodd;clip-rule:evenodd;fill:#000;}
</style>
<g>
	<path class="st0" d="M19.95824,64.68953v1.67357c0,0.62975,0.2784,0.89537,0.65,0.89537c0.42204,0,0.689-0.27476,0.689-0.89537
		v-1.67357h0.36482v1.64848c0,0.86327-0.45614,1.21801-1.06503,1.21801c-0.57479,0-1.00828-0.32496-1.00828-1.20418v-1.66232
		H19.95824z"/>
	<path class="st0" d="M22.15464,66.03111c0-0.20586-0.0021-0.38006-0.01588-0.54254h0.32161l0.02289,0.332h0.00911
		c0.10253-0.1946,0.33306-0.38006,0.66821-0.38006c0.2784,0,0.71399,0.16483,0.71399,0.86093v1.21121h-0.36739V66.3427
		c0-0.32519-0.12075-0.59998-0.46735-0.59998c-0.2464,0-0.43115,0.17397-0.49281,0.37771
		c-0.01822,0.04596-0.02495,0.10996-0.02495,0.17186v1.22036h-0.36743V66.03111z"/>
	<path class="st0" d="M24.8303,64.90242v0.5838h0.52457v0.27948H24.8303v1.09445c0,0.24946,0.06843,0.39362,0.2735,0.39362
		c0.09599,0,0.16886-0.01357,0.21231-0.0274l0.01588,0.27713c-0.06843,0.02978-0.18003,0.05038-0.32395,0.05038
		c-0.17097,0-0.31017-0.05273-0.39682-0.15354c-0.10253-0.10973-0.14126-0.29073-0.14126-0.53107V65.7657h-0.31254v-0.27948h0.31254
		V64.9962L24.8303,64.90242z"/>
	<path class="st0" d="M26.17817,64.91388c0.00233,0.12593-0.09132,0.2244-0.23496,0.2244c-0.12986,0-0.22352-0.09847-0.22352-0.2244
		c0-0.13056,0.09809-0.22903,0.23029-0.22903C26.08685,64.68484,26.17817,64.78332,26.17817,64.91388 M25.76757,65.48856h0.36716
		v2.02409h-0.36716V65.48856z"/>
	<rect x="26.74151" y="64.53385" class="st0" width="0.36716" height="2.97645"/>
	<path class="st0" d="M28.69174,66.56708c0.00444,0.49892,0.32605,0.70056,0.6911,0.70056
		c0.26462,0,0.42414-0.04361,0.55868-0.10316l0.064,0.2633c-0.12776,0.05956-0.35127,0.12377-0.67051,0.12377
		c-0.62271,0-0.99454-0.40746-0.99454-1.01894c0-0.61123,0.35571-1.0921,0.94662-1.0921c0.65677,0,0.83708,0.577,0.83708,0.95237
		c0,0.07781-0.00907,0.13293-0.01374,0.1742H28.69174z M29.77055,66.30144c0.00233-0.23352-0.0981-0.59998-0.51103-0.59998
		c-0.37626,0-0.53602,0.34348-0.56334,0.59998H29.77055z"/>
	<path class="st0" d="M30.63495,65.48622l0.39915,1.13806c0.06376,0.18546,0.12098,0.35474,0.16186,0.5198h0.01144
		c0.04788-0.16506,0.10487-0.33434,0.17124-0.5198l0.39005-1.13806h0.38537l-0.79157,2.02409h-0.35127l-0.76864-2.02409H30.63495z"
		/>
	<path class="st0" d="M32.66482,66.56708c0.00701,0.49892,0.32161,0.70056,0.6911,0.70056
		c0.26462,0,0.42204-0.04361,0.56124-0.10316l0.06142,0.2633c-0.12752,0.05956-0.35104,0.12377-0.67499,0.12377
		c-0.61823,0-0.98983-0.40746-0.98983-1.01894c0-0.61123,0.35805-1.0921,0.94638-1.0921c0.65701,0,0.83498,0.577,0.83498,0.95237
		c0,0.07781-0.00701,0.13293-0.01378,0.1742H32.66482z M33.74153,66.30144c0.00234-0.23352-0.09576-0.59998-0.51103-0.59998
		c-0.37626,0-0.53368,0.34348-0.56334,0.59998H33.74153z"/>
	<path class="st0" d="M34.50784,66.11598c0-0.23587-0.00677-0.44196-0.01584-0.62976h0.32157l0.01144,0.39389h0.01355
		c0.09809-0.2701,0.31717-0.43961,0.56335-0.43961c0.04111,0,0.07077,0.00446,0.10276,0.01148v0.35029
		c-0.03667-0.01386-0.07544-0.0162-0.12542-0.0162c-0.25785,0-0.4426,0.19486-0.49281,0.47176
		c-0.00907,0.05041-0.01822,0.10996-0.01822,0.17186v1.08062h-0.36038V66.11598z"/>
	<path class="st0" d="M36.07035,65.48622l0.43793,1.19527c0.04788,0.1327,0.09576,0.29752,0.13219,0.41428h0.00444
		c0.04111-0.11676,0.08225-0.27689,0.13243-0.41898l0.40149-1.19058h0.38538l-0.54957,1.44263
		c-0.26252,0.69587-0.4426,1.05318-0.6911,1.27053c-0.18261,0.15803-0.36038,0.22227-0.45171,0.23586l-0.09132-0.30901
		c0.09132-0.02744,0.2123-0.08466,0.32394-0.181c0.09576-0.07784,0.22118-0.22204,0.30573-0.40749
		c0.01588-0.03658,0.0297-0.0687,0.0297-0.08701c0-0.02295-0.01149-0.05038-0.0276-0.10081l-0.74576-1.86369H36.07035z"/>
	<path class="st0" d="M38.78455,66.15021c0-0.26098-0.00907-0.47618-0.01822-0.66399h0.33282l0.01612,0.34818h0.00911
		c0.14808-0.2497,0.38537-0.39624,0.7138-0.39624c0.49047,0,0.85759,0.41453,0.85759,1.03045
		c0,0.73034-0.44236,1.08976-0.91906,1.08976c-0.26696,0-0.50192-0.11676-0.62267-0.31815h-0.00911v1.09891h-0.36038V66.15021z
		 M39.14493,66.68595c0,0.05509,0.00911,0.1055,0.01826,0.15122c0.06839,0.25861,0.28728,0.43047,0.55186,0.43047
		c0.38771,0,0.6136-0.31371,0.6136-0.78075c0-0.4054-0.21445-0.758-0.60216-0.758c-0.25084,0-0.48347,0.18334-0.55424,0.45789
		c-0.01374,0.0483-0.02732,0.10316-0.02732,0.15123V66.68595z"/>
	<path class="st0" d="M41.32077,66.56708c0.00677,0.49892,0.32394,0.70056,0.6911,0.70056
		c0.26466,0,0.42204-0.04361,0.55895-0.10316l0.06372,0.2633c-0.12776,0.05956-0.35127,0.12377-0.67289,0.12377
		c-0.618,0-0.98982-0.40746-0.98982-1.01894c0-0.61123,0.35571-1.0921,0.94428-1.0921c0.65911,0,0.83708,0.577,0.83708,0.95237
		c0,0.07781-0.01378,0.13293-0.01611,0.1742H41.32077z M42.39725,66.30144c0.00467-0.23352-0.09576-0.59998-0.50842-0.59998
		c-0.37421,0-0.53606,0.34348-0.56339,0.59998H42.39725z"/>
	<path class="st0" d="M43.60615,64.90242v0.5838h0.52691v0.27948h-0.52691v1.09445c0,0.24946,0.07077,0.39362,0.27607,0.39362
		c0.09342,0,0.16419-0.01357,0.21207-0.0274l0.01588,0.27713c-0.06844,0.02978-0.18471,0.05038-0.32838,0.05038
		c-0.16887,0-0.3055-0.05273-0.39449-0.15354c-0.10276-0.10973-0.13916-0.29073-0.13916-0.53107V65.7657H42.9356v-0.27948h0.31254
		V64.9962L43.60615,64.90242z"/>
	<path class="st0" d="M45.42628,64.53596h0.36949v1.26631h0.00677c0.05933-0.1053,0.15298-0.19695,0.26466-0.2565
		c0.1095-0.06401,0.23726-0.10762,0.37412-0.10762c0.27373,0,0.70699,0.16718,0.70699,0.86774v1.20441h-0.36716v-1.16315
		c0-0.3273-0.11865-0.60443-0.46759-0.60443c-0.23936,0-0.42648,0.16951-0.49258,0.36857
		c-0.02289,0.05275-0.02522,0.10761-0.02522,0.17866v1.22036h-0.36949V64.53596z"/>
	<path class="st0" d="M48.86358,67.51031l-0.02966-0.25653h-0.01378c-0.10931,0.1604-0.33072,0.30225-0.618,0.30225
		c-0.40593,0-0.6159-0.28838-0.6159-0.57911c0-0.49236,0.43559-0.75801,1.21568-0.75801v-0.04129
		c0-0.16479-0.04788-0.46701-0.46058-0.46701c-0.18708,0-0.38327,0.05955-0.52691,0.15122l-0.08455-0.24266
		c0.16887-0.10996,0.4106-0.17866,0.66144-0.17866c0.62057,0,0.77098,0.42132,0.77098,0.82646v0.76012
		c0,0.1742,0.00911,0.34348,0.03433,0.48322H48.86358z M48.80893,66.47538c-0.39911-0.00677-0.85763,0.06403-0.85763,0.45792
		c0,0.24032,0.1619,0.35262,0.34894,0.35262c0.25995,0,0.42881-0.16483,0.48814-0.33879
		c0.01355-0.03892,0.02055-0.07787,0.02055-0.1191V66.47538z"/>
	<path class="st0" d="M49.70743,67.1347c0.1072,0.0687,0.29428,0.14442,0.48137,0.14442c0.26672,0,0.39215-0.13059,0.39215-0.30011
		c0-0.17397-0.10487-0.2701-0.37626-0.37091c-0.36039-0.12825-0.53131-0.33411-0.53131-0.577
		c0-0.32285,0.25991-0.5906,0.6955-0.5906c0.20296,0,0.38094,0.05718,0.49491,0.1259l-0.08875,0.26799
		c-0.07988-0.05276-0.22815-0.11911-0.41761-0.11911c-0.21441,0-0.33516,0.12357-0.33516,0.27924
		c0,0.16483,0.12075,0.24055,0.38537,0.34348c0.34894,0.13268,0.52929,0.30691,0.52929,0.60912
		c0,0.35708-0.27611,0.60441-0.75724,0.60441c-0.22137,0-0.42438-0.05038-0.56568-0.13737L49.70743,67.1347z"/>
	<path class="st0" d="M53.07634,67.51031l-0.02737-0.25653h-0.01378c-0.11164,0.1604-0.32838,0.30225-0.62033,0.30225
		c-0.40589,0-0.6159-0.28838-0.6159-0.57911c0-0.49236,0.43349-0.75801,1.21568-0.75801v-0.04129
		c0-0.16479-0.04998-0.46701-0.46058-0.46701c-0.18475,0-0.38327,0.05955-0.52457,0.15122l-0.08455-0.24266
		c0.16887-0.10996,0.4106-0.17866,0.65934-0.17866c0.62267,0,0.77542,0.42132,0.77542,0.82646v0.76012
		c0,0.1742,0.00677,0.34348,0.032,0.48322H53.07634z M53.02374,66.47538c-0.40359-0.00677-0.8574,0.06403-0.8574,0.45792
		c0,0.24032,0.15718,0.35262,0.34894,0.35262c0.25995,0,0.42881-0.16483,0.4858-0.33879
		c0.01355-0.03892,0.02266-0.07787,0.02266-0.1191V66.47538z"/>
	<path class="st0" d="M54.68669,64.53596h0.36716v1.26631h0.00911c0.05255-0.1053,0.14597-0.19695,0.26229-0.2565
		c0.10954-0.06401,0.2394-0.10762,0.37416-0.10762c0.2735,0,0.70465,0.16718,0.70465,0.86774v1.20441H56.0369v-1.16315
		c0-0.3273-0.12098-0.60443-0.46525-0.60443c-0.23964,0-0.42672,0.16951-0.49281,0.36857
		c-0.02055,0.05275-0.02499,0.10761-0.02499,0.17866v1.22036h-0.36716V64.53596z"/>
	<path class="st0" d="M58.8263,66.47986c0,0.75121-0.51313,1.07616-1.00127,1.07616c-0.54746,0-0.96927-0.39837-0.96927-1.03935
		c0-0.68227,0.44236-1.07616,1.00361-1.07616C58.43859,65.44051,58.8263,65.85948,58.8263,66.47986 M57.22735,66.50518
		c0,0.44196,0.25552,0.77605,0.61594,0.77605c0.3489,0,0.61118-0.32964,0.61118-0.78754c0-0.34348-0.1733-0.77605-0.60885-0.77605
		C57.41677,65.71764,57.22735,66.11598,57.22735,66.50518"/>
	<path class="st0" d="M59.25068,66.03111c0-0.20586-0.00467-0.38006-0.01845-0.54254h0.31951l0.02055,0.32285h0.01355
		c0.10958-0.19225,0.29662-0.37091,0.63178-0.37091c0.27373,0,0.48581,0.16483,0.57035,0.40514h0.01121
		c0.05936-0.11442,0.14154-0.20374,0.22585-0.2633c0.11865-0.09144,0.25552-0.14185,0.44493-0.14185
		c0.26443,0,0.66354,0.17397,0.66354,0.87922v1.19292h-0.35805v-1.14721c0-0.39365-0.14364-0.62741-0.44026-0.62741
		c-0.2074,0-0.36949,0.15803-0.43092,0.33903c-0.01822,0.04572-0.032,0.11911-0.032,0.18077v1.25482h-0.35571v-1.2159
		c0-0.32496-0.14598-0.55872-0.42438-0.55872c-0.22795,0-0.39678,0.18546-0.45381,0.3688
		c-0.02055,0.05721-0.02966,0.12122-0.02966,0.18311v1.2227h-0.35805V66.03111z"/>
	<path class="st0" d="M62.89537,66.56708c0.00682,0.49892,0.32161,0.70056,0.69114,0.70056
		c0.26458,0,0.41967-0.04361,0.55653-0.10316l0.06166,0.2633c-0.12566,0.05956-0.34684,0.12377-0.66845,0.12377
		c-0.62267,0-0.9966-0.40746-0.9966-1.01894c0-0.61123,0.36253-1.0921,0.9511-1.0921c0.65673,0,0.83237,0.577,0.83237,0.95237
		c0,0.07781-0.00911,0.13293-0.01122,0.1742H62.89537z M63.96508,66.30144c0.00915-0.23352-0.08894-0.59998-0.50636-0.59998
		c-0.36949,0-0.53368,0.34348-0.56101,0.59998H63.96508z"/>
	<path class="st0" d="M64.59919,67.29272c0-0.15334,0.10487-0.2633,0.25089-0.2633c0.14594,0,0.24637,0.10996,0.24637,0.2633
		c0,0.15357-0.0981,0.2633-0.25318,0.2633C64.69962,67.55602,64.59919,67.4463,64.59919,67.29272"/>
	<polygon class="st0" points="88.32231,61.1131 88.19455,61.1131 88.19455,60.09649 87.81599,60.09649 87.81599,59.97504 
		88.70792,59.97504 88.70792,60.09649 88.32231,60.09649 	"/>
	<polygon class="st0" points="89.44223,60.80174 89.43312,60.80174 89.02252,60.19262 89.02252,61.11076 88.8971,61.11076 
		88.8971,59.97293 89.02719,59.97293 89.4399,60.59565 89.85516,59.97293 89.98058,59.97293 89.98058,61.11076 89.85516,61.11076 
		89.85516,60.19262 	"/>
	<path class="st1" d="M16.75591,45.6604c-0.08432-0.15357-0.1413-0.22227-0.1413-0.22227s0.05465-0.0891,0.00444-0.16016
		c-0.05022-0.06867-0.1002-0.10993-0.1002-0.10993l-0.05255-0.33199c0,0,0.07754-0.1259,0.02059-0.31816
		c-0.05259-0.19929-0.13691-0.8061-0.13691-1.30289c0,0,0.01378-0.30902-0.01144-0.72354
		c-0.02289-0.41452-0.05465-0.7076-0.05465-0.7076s0.03176-0.12801-0.032-0.19905c-0.07287-0.0619-0.05928-0.22438-0.05461-0.36177
		c0.00673-0.13505,0.10927-0.40303,0.18471-0.66399c0.07754-0.26098,0.11164-0.60678,0.11164-0.60678l0.032,0.01829
		c0.04321-0.14419,0.05255-0.44407,0.05255-0.44407l0.02266,0.03658c0,0,0.07758-0.08253,0.04344-0.60443
		c-0.03433-0.52217-0.40616-1.06468-0.4858-1.19058c-0.08665-0.12614-0.53835-0.94346-1.00594-1.11977
		c-0.01144-0.0068-0.10253-0.11676-0.20296-0.24501c0.00444-0.10058,0.01144-0.20609,0.032-0.29753
		c0.08198-0.41898,0.22795-0.65719,0.22795-0.65719l-0.05932,0.01595c0,0,0.17124-0.35942,0.29896-0.63187
		c0.14364-0.31136,0.32838-0.62741,0.32838-0.62741l-0.04578,0.04126c0,0,0.15742-0.23352,0.17124-0.36177
		c0.00907-0.13742,0.02729-0.30902,0.09128-0.36622c-0.19853,0.08229-0.41527,0.25861-0.49047,0.46915
		c-0.01145,0.04361,0-0.06166,0-0.06166s-0.50636,0.60441-0.84619,1.34158c-0.05932,0.12379-0.15065,0.32988-0.22352,0.58614
		l-0.40593-0.38005c0,0-0.33773-0.29308-0.54303-0.38217c-0.20063-0.09402-0.31013-0.16272-0.59507-0.11231
		c-0.28755,0.05041-0.90555,0.21992-1.04242,0.29542c-0.13239,0.07549-0.49515,0.41898-0.46081,0.52422
		c0.03648,0.09613-0.05022,0.24269-0.05022,0.24269s-0.09132,0.1191-0.28728,0.19929
		c-0.19175,0.08464-0.65233,0.30667-0.75954,0.35028c-0.11187,0.04127-0.16419,0.05486-0.2053,0.06401
		c-0.07988,0.02295-0.07988,0.21521-0.03433,0.26119l0.05255,0.05041c0,0,0.07521,0.16014,0.1413,0.22883
		c0.06843,0.06424,0.27373,0.34348,0.7231,0.40749c0.17564,0.06424,0.67966,0,0.78686,0.00469
		c0.11187,0.00914,0.15512,0.04127,0.15512,0.04127s0.26692-0.08253,0.45844-0.03212
		c0.16653,0.04572,0.28518,0.20375,0.31484,0.27713c-0.05489,0.10058-0.21207,0.45087-0.26462,0.64333
		c-0.08899,0.35265-0.12776,0.8701,0.0661,1.58895c-0.07988,0.40749-0.12309,0.93432-0.02499,1.18144
		c0.05022,0.09613-0.00911,0.33434,0.02499,0.45107c0.02522,0.07107-0.0661,1.65554-0.0661,1.65554s-0.05022,0.0708-0.05465,0.14653
		c-0.00911,0.07784-0.00911,0.15097-0.00911,0.15097s-0.03667,0.09378-0.03667,0.1604c0,0.0687,0.01144,0.13268,0.06843,0.16928
		c0.05932,0.03212,0.14831,0.03212,0.14831,0.03212s0.06843,0.03658,0.11865,0.03658c0.05232,0,0.10487-0.02743,0.10487-0.02743
		s0.10043,0.01826,0.15065-0.00914c0.04788-0.02063,0.09342-0.04127,0.08665-0.1672
		c-0.00907-0.12588,0.01588-0.29542-0.01822-0.39597c-0.03433-0.10316-0.05021-0.20163-0.05021-0.20163
		s-0.04107-0.65015-0.00911-0.84241c0.0341-0.19695,0.04321-0.35732,0.04321-0.35732s0.07544-0.10996,0.11421-0.43492
		c0.04321-0.31371,0.15041-0.53363,0.15041-0.53363s0.0661,0.17631,0.12776,0.26118
		c0.06843,0.12802,0.01378,0.53339,0.01378,0.53339s-0.02966,0.15123,0.08432,0.58615
		c0.12075,0.4443,0.19619,0.89305,0.26229,1.51109c0.0661,0.61592,0,0.72823,0.0661,0.91134
		c-0.0341,0.18546-0.0661,0.44641-0.0661,0.55402c0,0.10996-0.13243,0.23352-0.20063,0.34114
		c-0.06633,0.10316-0.04107,0.16717-0.04107,0.16717l0.05695,0.0687l0.25084,0.06635l0.30106-0.01829l0.18241-0.02509
		c0,0,0.04578,0.01595,0.09599,0.01595c0.05232,0,0.11164-0.08464,0.11164-0.2082c0-0.12614-0.03644-0.47642-0.03644-0.47642
		s0.05232-0.00446,0.05232-0.07315s-0.07521-0.16037-0.10931-0.41218c-0.03429-0.25183-0.01822-0.35708-0.07754-0.54043
		c-0.05699-0.18546-0.10277-0.35028-0.10277-0.35028s-0.00677-0.87242-0.00677-1.36924s-0.08899-0.74183-0.08899-0.74183
		s0.05026-0.24501,0.032-0.34559c0.05232-0.15568,0.12986-0.21312,0.12986-0.21312s0.12098,0.17628,0.37654,0.26353
		c0.24847,0.08229,0.63407-0.04126,0.63407-0.04126s0.0341,0.16928,0.01822,0.37091
		c-0.01822,0.2014-0.04344,0.21734-0.04344,0.31816c0,0.10316,0,0.37326,0.11865,0.67548
		c0.11865,0.30222,0.11865,0.39389,0.09342,0.45555c-0.02733,0.05955-0.02733,0.22906,0.00701,0.32074
		c0.0341,0.08909,0.04325,0.14185,0.04325,0.14185s0,0.14419,0.0434,0.14419c0.03877,0,0.06843,0.00914,0.06843,0.00914
		s0.04788,0.02298,0.1072,0.03212c0.05699,0.00914,0.09109-0.02063,0.09109-0.02063l0.09132,0.01149l-0.04344,0.8403
		c0,0-0.13687,0.5838,0.01378,0.65015c0.02059,0.06659-0.03877,0.48088-0.01588,0.51534
		c0.02266,0.03658,0.06843,0.03658,0.06843,0.03658s0.02733,0.01595,0.06847,0.02298c0.03873,0.01125,0.33745,0,0.33745,0
		s0.11164,0.06635,0.17797,0.06635c0.07054,0,0.11164-0.08253,0.11164-0.08253s0.13687-0.07081,0.17564-0.13271
		C16.83812,45.9258,16.83345,45.81373,16.75591,45.6604"/>
	<path class="st1" d="M35.68941,36.48811c-0.05932-0.0206-0.0731-0.04827-0.0731-0.04827l0.14157,0.03681
		c0,0-0.1051-0.21992-0.42208-0.2565c-0.59768-0.07338-1.69704,0.10527-2.37437,0.6593
		c-0.74132,0.48788-1.34787,1.40816-1.56018,1.98306c0,0-0.03877-0.00469-0.11398-0.00469s-0.81419-0.03658-1.43009,0.50151
		c-0.032-0.18335,0.08432-0.29096,0.00467-0.37326c-0.0731-0.08933-0.13243-0.08933-0.13243-0.08933
		s-0.2394-0.28627-0.37183-0.50596c-0.13453-0.22438-0.16186-0.31605-0.2188-0.4511
		c-0.05936-0.13505-0.29876-0.5838-0.44264-0.74863c-0.14126-0.16506-0.37183-0.43281-0.45848-0.54957
		c-0.08875-0.10996-0.36244-0.00914-0.36244-0.00914s-0.25112-0.20609-0.59305-0.3756
		c-0.34216-0.16485-0.4426-0.21969-0.8623-0.22883s-0.73665,0.0136-1.06737,0.04572c0,0-0.40378,0.09167-0.66378,0.17397
		c-0.25551,0.08464-0.48814,0.25884-0.57245,0.35497c-0.08431,0.09847-0.21207,0.60889-0.28518,0.66396
		c-0.16863,0.12124-0.74809,0.24269-1.14724,0.29755c-0.1733,0.01149-0.84381,0.07339-0.67732,0.52894
		c0,0-0.10043,0.53806,0.17774,0.78544c0.21231,0.19695,0.4837,0.35708,0.92606,0.54957
		c-0.09576,0.03892-0.40125,0.13036-0.40125,0.13036s-0.11188,0.00234-0.15742,0.16482
		c-0.05022,0.16272,0.02732,0.38475,0.24173,0.47639c0.22795,0.08467,0.5064,0.08232,0.87351,0.13742
		c0.28961,0.05718,0.62501,0.2082,0.9305,0.18756c0.30807-0.02063,0.45408-0.04572,0.45408-0.04572l0.33512,0.25181
		c0,0,0.37183,0.31136,0.60679,0.89751c0.02737,0.04126,0,0.20163-0.0341,0.41895c-0.03429,0.19017-0.16653,0.98238-0.16653,1.15192
		c-0.01144,0.47853-0.11631,1.01872,0.11398,1.8888c0.14364,0.55426,0.70698,1.17933,0.78242,1.2295
		c0,0,0.04788,0.30691-0.05722,0.80607c-0.10487,0.50362-0.22114,0.99833-0.22114,1.08529c0,0.08701,0.01818,0.4122-0.13457,1.17229
		c-0.15065,0.7578-0.28518,1.30057-0.39682,1.66679c-0.11865,0.36646-0.07754,0.56552-0.04111,1.41496
		c-0.00907,0.16037-0.41971,1.66231-0.39005,1.97602c0.02289,0.22203,0.03877,0.62976,0.03877,0.62976
		s0.08431,0.03189,0.13219,0.0136c0.04811-0.01829,0.10724-0.09613,0.10724-0.09613s0.09128,0.00914,0.19852-0.02298
		c0.10277-0.02743,0.19152-0.09378,0.19152-0.09378s0.04784,0.04807,0.1826-0.03892
		c0.12986-0.08464,0.14364-0.22907,0.14364-0.22907s0.27373-0.12356,0.31484-0.26329
		c0.03644-0.13271,0.07754-0.82178,0.09576-0.90665c-0.13687-0.19225-0.13009-0.54957-0.06633-0.76246
		c0.09366-0.1878,0.08455-0.2565,0-0.36414c-0.08875-0.10525-0.11841-0.26773-0.11841-0.35706
		c0.17097,0.03212,0.24173-0.20374,0.19596-0.33434c-0.04998-0.12122-0.06138-0.17163-0.06138-0.17163
		s-0.08669-0.22906,0.0114-0.45344c0.09576-0.21523,0.64089-1.6942,0.64089-1.6942s0.80064-1.80439,0.73665-2.36522
		c0.04555-0.04596,0.39238-0.0068,0.51313,0.03423c0.12542,0.03447,0.25785,0.13294,0.36505,0.332
		c0.10487,0.20374,0.37183,0.68227,0.37183,0.68227s0.25995,0.23138,0.37163,0.58615c0.11861,0.35497,0.1415,0.8267,0.13683,1.23888
		c-0.01822,0.5083-0.16186,1.06233-0.25995,1.25459c-0.09342,0.19249-0.69554,0.85648-0.69554,0.85648
		s-0.20086,0.24266-0.15508,0.27455c0.04998,0.04126,0.12309,0.05041,0.12309,0.05041s-0.03643,0.17397,0.032,0.21078
		c0.06843,0.04127,0.18007-0.00914,0.18007-0.00914s0.11631,0.07784,0.17097,0.08933
		c0.05932,0.0068,0.16443-0.02066,0.16443-0.02066s0.27817,0.00917,0.3807-0.13526c0.10277,0.03892,0.14598,0.10762,0.2053,0.10762
		c0.05489,0,0.15742-0.11887,0.15742-0.11887V52.591c0,0-0.02733,0.21523-0.08198,0.32965
		c-0.05928,0.11465-0.02966,0.34348,0.01822,0.48322c0,0.15803,0.00911,0.45555,0.00911,0.45555s-0.09809,0.4375-0.08661,0.68696
		c0,0.24736-0.09809,0.66868-0.13457,0.8335c-0.03667,0.16248-0.07544,0.4579-0.07544,0.4579s0.02055,0.49213,0.09132,0.51065
		c0.07754,0.01594,0.1072-0.05956,0.1072-0.05956s0.06166,0.16717,0.11631,0.17397c0.05699,0.0068,0.12542-0.03892,0.12542-0.03892
		s0.04554,0.13739,0.13009,0.14653c0.08665,0.00914,0.15508-0.0687,0.15508-0.0687h0.17097
		c0.09809,0,0.18479-0.13739,0.18479-0.13739s0.13449,0.08253,0.22114,0.05956c0.08221-0.02063,0.1392-0.11442,0.1689-0.11442
		c0.02962,0,0.12538-0.02063,0.20759-0.08722c0.08669-0.06401,0.1002-0.47618,0.07754-0.55637
		c-0.01612-0.0755-0.07754-0.14419-0.11187-0.28604c-0.03644-0.14654-0.06843-0.35732-0.13453-0.54957
		c-0.06843-0.19226-0.1733-0.52214-0.13215-0.94792c0.03873-0.42578-0.02059-1.07616-0.02059-1.07616s0.02733-1.0281,0.0341-2.19805
		c0.01612-1.17464-0.00444-2.03534,0.02522-2.28949c0.02966-0.24735-0.07988-0.59084-0.07988-0.59084l-0.08431-0.66164
		c0,0,0.17097-0.27713,0.3055-0.44196l-0.08661,0.02978c0,0,0.20086-0.25181,0.37622-0.50154
		c0.1712-0.24709,0.35127-0.70968,0.35127-0.70968l0.39238-0.55405c0,0,0.01588,0.19908,0.10487,0.3067
		c0.08665,0.10527,0.36272,0.65484,0.39238,0.85413l0.00677-0.09613l0.22356,0.67079c0,0,0.18704,0.95026,0.39238,1.1608
		c-0.03204,0.31839,0.20059,0.81732,0.20059,1.05553c0,0.23821-0.07053,0.54488-0.03176,0.79224
		c0.04998,0.29307,0.2053,0.62035,0.2053,0.62035s-0.01378,0.56577,0.07521,0.87245
		c0.08665,0.30688,0.01822,1.77224,0.02499,1.83183c0.01149,0.1191,0.06844,0.15334,0.06844,0.15334
		s0.08221,0.08464,0.30106,0.13739c0.10277,0.02298,0.2714-0.00914,0.32632-0.0068c0.05461,0,0.12772-0.07784,0.20059-0.07784
		c0.064-0.00469,0.12775,0.0755,0.15275,0.0755c0,0,0.16653,0.06635,0.28284,0.01149
		c0.11421-0.0551,0.04348-0.15571,0.04348-0.15571c0.07073-0.03209,0.05462-0.21309,0.05462-0.21309s0.032-0.13739-0.02055-0.29073
		c-0.02499-0.07104-0.17097-0.30222-0.34894-0.81732c-0.18708-0.53577-0.37179-1.21356-0.37179-1.21356
		s-0.04325-0.75777-0.06614-0.96621c-0.02055-0.20844-0.16863-0.3892-0.16863-0.3892s0.00677-0.19929-0.02289-0.25884
		c-0.02729-0.05958-0.10487-0.18991-0.10487-0.18991s-0.12542-0.3756-0.07544-0.78778
		c0.04811-0.40984,0.18942-1.44004-0.15275-2.72464c0.03644-0.29987-0.14364-0.63656-0.14364-0.63656
		s0.01144-1.51343-0.05465-1.96666c-0.07077-0.44873-0.2053-0.7969-0.2053-0.7969s-0.19385-1.93241-1.23853-2.57342
		c0,0,0.30102-0.91579,0.62497-1.14955c0.32605-0.23798,0.55424-0.37302,0.55424-0.37302l-0.08455-0.00703
		c0,0,0.35127-0.22438,0.57946-0.25626c0.22352-0.04126,0.45381-0.13528,0.45381-0.13528l-0.07521-0.0204
		c0,0,0.15275-0.05041,0.38098-0.08487c0.23025-0.03892,0.64996-0.27012,0.75039-0.34348c0.10487-0.0755,0.21207,0,0.21207,0
		S35.91971,36.56363,35.68941,36.48811"/>
	<path class="st2" d="M41.04938,31.66368c-0.25995,0.15568-0.32628,0.22435-0.49047,0.41895
		c-0.15509,0.18338-0.4767,0.65722-0.61123,1.00539c-0.0114-0.01149-0.02289-0.02066-0.02732-0.02977
		c-0.05255-0.05275-0.18708-0.10316-0.32628-0.04807c-0.17564-0.10316-0.36248-0.18335-0.52224-0.19249
		c-0.15742-0.00446-0.54046,0.0687-0.63178,0.12379c-0.20974,0.0274-0.33072,0.04572-0.38771,0.10527
		c-0.06162,0.06401-0.21441,0.40303-0.2805,0.48533c-0.06839,0.08699-0.05022,0.22907-0.04788,0.3252
		c0,0.09613,0.02499,0.3252,0.02499,0.3252s-0.12309,0.17631-0.20296,0.24709c-0.08221,0.06873,0.04321,0.2863,0.04321,0.2863
		s-0.0341,0.31371,0.04344,0.35497c0.07081,0.03892,0.12098,0.03892,0.12098,0.03892s0.16186,0.14419,0.27817,0.14865
		c0.09576,0,0.1642-0.0687,0.17564-0.0823l0.00677-0.0068c0,0-0.01144,0.02509-0.01355,0.03892
		c-0.05489,0.22438-0.0731,0.51745-0.04111,0.6867c-0.11631,0.25652-0.22118,0.81969-0.10954,1.61193
		c0.02733,0.31605-0.06162,0.40772-0.06843,0.64122c-0.01355,0.23355,0.07077,0.72802,0.0661,0.77371
		c-0.01121,0.04598-0.07964,0.16509-0.08899,0.25207c-0.01121,0.08698,0.01845,0.18757-0.00911,0.25181
		c-0.03176,0.06401-0.09343,0.13271-0.12075,0.24947c-0.03196,0.11465-0.02523,0.35028-0.02523,0.35028
		s-0.00206,0.18546-0.29195,0.83585c-0.05232,0.09613-0.12542,0.10762-0.17564,0.18077
		c-0.04998,0.08253-0.18241,0.32985-0.2188,0.38006c-0.03204,0.0551-0.00467,0.08253,0.0364,0.08722
		c0.03643,0,0.1712-0.00703,0.1712-0.00703s0.07287,0.01618,0.12986,0.01618c0.05699,0.00446,0.14388-0.03681,0.14388-0.03681
		s0.0979,0.00703,0.12986,0.00469c0.03877-0.00469,0.05699-0.03658,0.05699-0.03658s0.10958-0.00235,0.13009-0.0551
		c0.02499-0.05252,0.02499-0.1191,0.02499-0.1191s0.1072-0.17842,0.05025-0.34325c0.10483-0.577,0.22348-0.88837,0.30102-1.02579
		c0.08221-0.13971,0.06166-0.24498,0.05022-0.31133c-0.00911-0.07104,0.06843-0.35263,0.06843-0.35263
		s0.18475,1.41496,0.1619,1.50195c-0.02036,0.08464-0.06614,0.21054-0.01125,0.33644
		c0.01592,0.14208-0.02966,0.40069-0.10954,0.56575c-0.07754,0.16693-0.22819,0.35028-0.26225,0.47853
		c-0.03648,0.13036,0.0135,0.17608,0.04107,0.18077c0.02732,0.00469,0.11842-0.04572,0.11842-0.04572
		s0.06633,0.05955,0.10043,0.05955c0.03204-0.00469,0.07988-0.0551,0.07988-0.0551s0.14602,0.06424,0.18708,0.05955
		c0.03877-0.00235,0.10254-0.1327,0.10254-0.1327l0.06166-0.00469c0,0,0.05699,0.0687,0.11164,0.05041
		c0.05699-0.01384,0.06633-0.19226,0.04344-0.31371c-0.01822-0.1259-0.01588-0.37772,0.01144-0.46939
		c0.02059,0,0.06142-0.07784,0.01826-0.24712c0.02051-0.2429,0.06139-0.47173-0.08225-0.69165
		c-0.01818-0.44875,0.01378-1.04639,0.05932-1.34626c0.04344-0.29753-0.02055-0.44875-0.02055-0.44875
		s-0.02055-0.33434,0.04788-0.37091c0.10954,0.13974,0.43349,0.40069,0.5498,0.42367
		c0.11398,0.02509,0.19386-0.00703,0.19386-0.00703s0.07988,0.05041,0.18475,0.04126
		c0.10043-0.00914,0.15041-0.10996,0.15041-0.10996s0.02966,0.46493,0.11187,0.72823
		c0.08432,0.26095,0.17097,0.67545,0.17797,0.78755c0.0021,0.11465,0.04788,0.10081,0.04788,0.10081s0.03414,0.16951,0,0.40984
		c-0.03643,0.24032-0.03877,0.36411,0.02966,0.40514c0.01355,0.26564-0.0661,0.38709-0.02523,0.41687
		c0.02971,0.02274,0.05933,0.02743,0.05933,0.02743s0.01611,0.21992,0.00911,0.31136c0,0.09847,0.00911,0.24266,0.06403,0.28159
		c0.05461,0.03447,0.13216,0.0619,0.13216,0.0619s0.06843,0.04572,0.11631,0.04361c0.05699-0.00235,0.09132-0.03447,0.09132-0.03447
		s0.09342,0.02743,0.14835,0.05486c0.04994,0.03212,0.07961,0.05742,0.14804,0.04803
		c0.07544-0.01123,0.07988-0.07547,0.07988-0.07547s0.11865-0.02274,0.1598-0.03658
		c0.03639-0.01384,0.00907-0.05956,0.00907-0.05956s-0.07077-0.14653-0.09366-0.2565
		c-0.02266-0.11207-0.21203-0.22438-0.21203-0.22438s-0.02059-0.12828-0.10724-0.18757
		c-0.11631-0.35051-0.09109-0.66422-0.09109-0.66422s0.07754,0.13059,0.12075,0.13736
		c0.04788,0.00917,0.07758-0.05484,0.07758-0.05484s0.1415,0.04572,0.17116,0.02509
		c0.03176-0.01595,0.07521-0.07081,0.07521-0.07081s0.05933,0.00912,0.09576,0.00208c0.032-0.00912,0.04559-0.04569,0.04559-0.04569
		s0.09595,0.02978,0.13005,0.01618c0.02733-0.00469,0.05933-0.12825-0.01822-0.1878
		c-0.17797-0.13505-0.16887-0.22438-0.25995-0.32965c-0.08221-0.09636-0.22585-0.59998-0.22585-0.59998
		s-0.01374-0.24736-0.02966-0.44876c-0.01378-0.20609-0.07077-0.37091-0.02055-0.48087
		c0.05022-0.10527,0.26463-0.38006,0.28518-0.69611c0.01588-0.31136-0.09576-1.21332-0.09576-1.21332
		s0.13219-0.57489,0.11164-0.93197c-0.02499-0.35942-0.12776-0.50385-0.12776-0.50385s0.00677-0.56551-0.31484-0.9798
		c-0.32138-0.41452-0.56101-0.42367-0.56101-0.42367s0.13009-0.20143,0.15512-0.28838
		c0.01818-0.08253-0.08669-0.22907-0.25322-0.36646c0.03877-0.09144,0.12542-0.27924,0.18708-0.37091
		c-0.05699,0.02743-0.07521,0.07338-0.07521,0.07338s0.07287-0.19014,0.18475-0.42838
		c0.11865-0.23349,0.2394-0.41895,0.40149-0.58823c0.16186-0.17397,0.35337-0.28865,0.39892-0.3756
		c0.04578-0.09613,0.1072-0.1053,0.13247-0.11676C41.50552,31.57224,41.3026,31.51715,41.04938,31.66368"/>
	<path class="st2" d="M38.20065,35.20823c0.0021-0.00914,0.00444-0.02298,0.00677-0.03681
		C38.19598,35.22652,38.19598,35.22652,38.20065,35.20823"/>
	<path class="st3" d="M13.69044,38.39991c0.75047,0.02978,1.22479-0.59763,1.34811-1.09914
		c0.07988-0.33202,0.05465-0.58615,0.01355-0.70971c0.00467,0,0.00701,0.00469,0.01145,0.00469
		c-0.02499-0.0551-0.0661-0.12145-0.11631-0.19695v0.0136l-0.23029-0.28393l-0.01822-0.0136
		c0.00911,0.01829,0.02055,0.07781,0.04998,0.23798c0.04578,0.25204,0.01845,0.58169,0.01845,0.58169l-0.03196-0.07339
		c0,0,0.05018,0.27713-0.12102,0.64804c-0.18918,0.42132-0.63178,0.73031-1.09936,0.73031
		c-0.40359-0.00677-0.75486-0.27476-0.83708-0.34557v-0.00234l-0.02499,0.06187
		C12.73027,38.04726,13.06099,38.37694,13.69044,38.39991"/>
	<path class="st3" d="M26.99707,42.67011c1.14043-0.10316,2.10293-1.01427,2.43369-1.88906
		c0.2828-0.73711,0.24637-1.1676,0.24637-1.1676s-0.09132,0.1189-0.22585,0.07318c0,0-0.28985,0.89305-1.14725,1.6119
		c-0.70955,0.59529-1.61039,0.72823-1.61039,0.72823s-0.39682,0.05955-0.57475,0.01829
		c0.07984,0.03189,0.11627,0.05955,0.11627,0.05955s-0.1413-0.01829-0.2805-0.05955l-0.09132,0.53339
		C26.12562,42.65628,26.48833,42.71349,26.99707,42.67011"/>
	<path class="st3" d="M38.51082,35.75546c0.24173,0.14417,0.81185,0.1946,1.30676-0.23141
		c0.50192-0.42578,0.46315-1.24545,0.46315-1.24545l-0.10487,0.07081c0,0-0.00911,0.46936-0.37183,0.83819
		c-0.34656,0.35263-0.7551,0.43047-0.92606,0.43258c-0.17564,0.00703-0.36272-0.08229-0.36272-0.08229
		s-0.12542-0.0687-0.20063-0.15802c-0.09132-0.11676-0.1072-0.21289-0.1072-0.21289l-0.00234,0.0068
		c-0.00911,0.04572-0.02732,0.1123-0.0411,0.1946C38.20275,35.46918,38.29641,35.63166,38.51082,35.75546"/>
	<path class="st1" d="M28.11928,42.30131c0.01588,0.03212,0,0.06424-0.02966,0.07808
		c-0.02966,0.01829-0.06633,0.00445-0.08221-0.02532l-0.31928-0.67782c-0.01374-0.02954,0-0.06166,0.02966-0.07784
		c0.02966-0.01595,0.0661-0.00211,0.08198,0.03212L28.11928,42.30131z"/>
	<path class="st1" d="M27.20466,41.89851c0,0-0.19175,0.06166-0.37883,0.10762c-0.02943,0.13505-0.02261,0.577,0.07548,0.66633
		c0.17326-0.00469,0.47198-0.06424,0.47198-0.06424s0.04344,0.04361-0.0341,0.08699
		c-0.08221,0.04572-0.38094,0.10527-0.46759,0.10081c-0.08455-0.00234-0.16882-0.08464-0.18942-0.39154
		c-0.02733-0.3756,0.01144-0.45113,0.08221-0.49002c0.06376-0.04127,0.28051-0.06193,0.36482-0.05958
		C27.21377,41.8617,27.20466,41.89851,27.20466,41.89851"/>
	<path class="st1" d="M26.6572,42.68371h0.0661c0,0,0.01144,0.14651-0.11627,0.14651c-0.10491,0-0.09576-0.14862-0.09576-0.14862
		s0.0114-0.5634,0.01351-0.62296c0-0.05252,0.00701-0.10973,0.07077-0.10973c0.05932,0,0.06166,0.08699,0.06166,0.08699
		l-0.0661,0.00446l-0.00911,0.64335C26.58199,42.76858,26.6572,42.7571,26.6572,42.68371"/>
	<path class="st1" d="M26.80322,42.38383c0,0,0.12304-0.00445,0.15948-0.01829c0.04344-0.00914,0.0297-0.08018-0.01355-0.07784
		c-0.03877,0.00446-0.1733,0.0136-0.1733,0.0136L26.80322,42.38383z"/>
	<path class="st1" d="M26.92626,43.07994c0,0.17866-0.1392,0.31581-0.31923,0.31581c-0.17101,0-0.31021-0.13716-0.31021-0.31581
		c0-0.17397,0.1392-0.31136,0.31021-0.31136C26.78706,42.76858,26.92626,42.90598,26.92626,43.07994"/>
	<path class="st1" d="M28.11928,42.30131c0.01822,0.03212,0.00444,0.06424-0.02756,0.07808
		c-0.03176,0.01829-0.06843,0.00445-0.07964-0.02532l-0.32161-0.67782c-0.01608-0.02954,0-0.06166,0.03176-0.07784
		c0.02756-0.01595,0.064-0.00211,0.07988,0.03212L28.11928,42.30131z"/>
	<path class="st1" d="M27.20676,41.89851c0,0-0.19152,0.06166-0.3786,0.10762c-0.0341,0.13505-0.02495,0.577,0.07314,0.66633
		c0.1777-0.00469,0.47198-0.06424,0.47198-0.06424s0.04344,0.04361-0.0341,0.08699c-0.07754,0.04572-0.3765,0.10527-0.46315,0.10081
		c-0.08899-0.00234-0.16859-0.08464-0.19386-0.39154c-0.02499-0.3756,0.01612-0.45113,0.08455-0.49002
		c0.06376-0.04127,0.28284-0.06193,0.36716-0.05958C27.21377,41.8617,27.20676,41.89851,27.20676,41.89851"/>
	<path class="st1" d="M26.66397,42.68371h0.06166c0,0,0.01144,0.14651-0.11188,0.14651c-0.1093,0-0.10249-0.14862-0.10249-0.14862
		s0.01351-0.5634,0.01584-0.62296c0-0.05252,0.00467-0.10973,0.0731-0.10973c0.05699,0,0.05699,0.08699,0.05699,0.08699
		l-0.06166,0.00446l-0.00677,0.64335C26.58877,42.76858,26.66397,42.7571,26.66397,42.68371"/>
	<path class="st1" d="M26.80555,42.38383c0,0,0.12304-0.00445,0.15948-0.01829c0.04344-0.00914,0.03204-0.08018-0.00911-0.07784
		l-0.17797,0.0136L26.80555,42.38383z"/>
	<path class="st1" d="M26.92859,43.07994c0,0.17866-0.14154,0.31581-0.31484,0.31581c-0.17564,0-0.3146-0.13716-0.3146-0.31581
		c0-0.17397,0.13897-0.31136,0.3146-0.31136C26.78706,42.76858,26.92859,42.90598,26.92859,43.07994"/>
	<path class="st0" d="M22.24362,60.84746c0,0.41663-0.22795,0.63421-0.48347,0.76246
		c0.39915,0.13974,0.67522,0.36412,0.67522,0.83561c0,0.61592-0.49954,0.9458-1.25912,0.9458H19.5979v-3.41841h1.52814
		C21.81271,59.97293,22.24362,60.30703,22.24362,60.84746 M21.64855,60.94358c0-0.28158-0.21445-0.43961-0.60006-0.43961h-0.86203
		v0.90665h0.81882C21.39066,61.41063,21.64855,61.25964,21.64855,60.94358 M21.83774,62.38387
		c0-0.29542-0.22823-0.46024-0.70025-0.46024h-0.95102v0.93171h0.99212C21.58919,62.85534,21.83774,62.69522,21.83774,62.38387"/>
	<rect x="23.1858" y="59.97293" class="st0" width="0.59749" height="3.41606"/>
	<path class="st0" d="M26.05041,61.40617c0.71633,0.17631,1.09259,0.43492,1.09259,1.00958
		c0,0.64356-0.50192,1.02365-1.21797,1.02365c-0.52228,0-1.01509-0.18335-1.41868-0.54488l0.35805-0.43281
		c0.32628,0.28159,0.65467,0.44407,1.07648,0.44407c0.36953,0,0.60445-0.16928,0.60445-0.4326
		c0-0.25202-0.13683-0.38472-0.76864-0.53126c-0.73198-0.17397-1.13346-0.3892-1.13346-1.02341
		c0-0.59532,0.48347-0.99598,1.16313-0.99598c0.49491,0,0.88729,0.15099,1.2339,0.43047l-0.32161,0.45318
		c-0.30779-0.23115-0.61566-0.3526-0.92373-0.3526c-0.351,0-0.5542,0.18335-0.5542,0.41218
		C25.2407,61.13139,25.39364,61.25049,26.05041,61.40617"/>
	<path class="st0" d="M29.18665,61.40617c0.72077,0.17631,1.09703,0.43492,1.09703,1.00958
		c0,0.64356-0.50402,1.02365-1.21801,1.02365c-0.52224,0-1.01038-0.18335-1.42098-0.54488l0.36038-0.43281
		c0.32395,0.28159,0.65027,0.44407,1.07438,0.44407c0.37183,0,0.60445-0.16928,0.60445-0.4326
		c0-0.25202-0.13687-0.38472-0.77098-0.53126c-0.72077-0.17397-1.13576-0.3892-1.13576-1.02341
		c0-0.59532,0.48814-0.99598,1.16546-0.99598c0.49721,0,0.89169,0.15099,1.23619,0.43047l-0.31927,0.45318
		c-0.31017-0.23115-0.61356-0.3526-0.92373-0.3526c-0.35127,0-0.55657,0.18335-0.55657,0.41218
		C28.37923,61.13139,28.53432,61.25049,29.18665,61.40617"/>
	<polygon class="st0" points="33.56356,60.50866 31.63622,60.50866 31.63622,61.397 33.34238,61.397 33.34238,61.93277 
		31.63622,61.93277 31.63622,62.85325 33.58878,62.85325 33.58878,63.38899 31.03644,63.38899 31.03644,59.97293 33.56356,59.97293 
			"/>
	<polygon class="st0" points="34.34598,59.97293 34.94343,59.97293 34.94343,62.84411 36.73623,62.84411 36.73623,63.38899 
		34.34598,63.38899 	"/>
	<polygon class="st0" points="37.432,59.97293 38.03178,59.97293 38.03178,62.84411 39.81992,62.84411 39.81992,63.38899 
		37.432,63.38899 	"/>
	<path class="st0" d="M43.27543,62.28985h-0.67499v1.09914h-0.60001v-3.41606h1.34815c0.78915,0,1.29084,0.44873,1.29084,1.14697
		C44.63942,61.8915,44.0259,62.28985,43.27543,62.28985 M43.29365,60.51778h-0.69321v1.23633h0.69321
		c0.45614,0,0.73458-0.25181,0.73458-0.62038C44.02824,60.72835,43.74535,60.51778,43.29365,60.51778"/>
	<polygon class="st0" points="47.80532,60.50866 45.87803,60.50866 45.87803,61.397 47.58391,61.397 47.58391,61.93277 
		45.87803,61.93277 45.87803,62.85325 47.83031,62.85325 47.83031,63.38899 45.27797,63.38899 45.27797,59.97293 47.80532,59.97293 
			"/>
	<polygon class="st0" points="50.00172,63.38899 49.3996,63.38899 49.3996,60.52695 48.31845,60.52695 48.31845,59.97293 
		51.0852,59.97293 51.0852,60.52695 50.00172,60.52695 	"/>
	<polygon class="st0" points="55.78605,60.51778 53.84727,60.51778 53.84727,61.44955 55.56697,61.44955 55.56697,61.99912 
		53.84727,61.99912 53.84727,63.38899 53.2496,63.38899 53.2496,59.97293 55.78605,59.97293 	"/>
	<path class="st0" d="M58.06232,63.44852c-1.04705,0-1.77902-0.79456-1.77902-1.76313c0-0.96852,0.74109-1.77201,1.79047-1.77201
		c1.04214,0,1.77669,0.79666,1.77669,1.76289C59.85046,62.64482,59.10918,63.44852,58.06232,63.44852 M58.06232,60.46271
		c-0.67756,0-1.14724,0.5404-1.14724,1.21356c0,0.66867,0.48347,1.2227,1.15869,1.2227c0.67499,0,1.14725-0.54488,1.14725-1.21358
		C59.22102,61.01463,58.74199,60.46271,58.06232,60.46271"/>
	<path class="st0" d="M63.46106,61.90979c0,1.01661-0.57479,1.53403-1.46652,1.53403c-0.88496,0-1.44854-0.51742-1.44854-1.50426
		v-1.96664h0.59768v1.94155c0,0.63655,0.32628,0.98004,0.86207,0.98004c0.52925,0,0.85763-0.32522,0.85763-0.95495v-1.96664h0.59768
		V61.90979z"/>
	<polygon class="st0" points="66.68628,59.97293 67.27462,59.97293 67.27462,63.38899 66.77293,63.38899 64.89581,60.95742 
		64.89581,63.38899 64.30491,63.38899 64.30491,59.97293 64.86382,59.97293 66.68628,62.3358 	"/>
	<path class="st0" d="M69.46891,63.38899h-1.27056v-3.41606h1.27056c1.07414,0,1.81107,0.73477,1.81107,1.70334
		C71.27998,62.64248,70.54305,63.38899,69.46891,63.38899 M69.46891,60.51778h-0.66845v2.32633h0.66845
		c0.71609,0,1.18601-0.48557,1.18601-1.15872C70.65492,61.00994,70.18501,60.51778,69.46891,60.51778"/>
	<path class="st0" d="M75.07532,63.38899h-0.63206l-0.34656-0.82438h-1.61488l-0.34894,0.82438h-0.61122l1.49852-3.44373h0.55424
		L75.07532,63.38899z M73.28458,60.66434l-0.5839,1.36924h1.17714L73.28458,60.66434z"/>
	<polygon class="st0" points="76.73098,63.38899 76.1312,63.38899 76.1312,60.52695 75.05005,60.52695 75.05005,59.97293 
		77.81446,59.97293 77.81446,60.52695 76.73098,60.52695 	"/>
	<rect x="78.55111" y="59.97293" class="st0" width="0.60216" height="3.41606"/>
	<path class="st0" d="M81.68973,63.44852c-1.05153,0-1.77696-0.79456-1.77696-1.76313c0-0.96852,0.74132-1.77201,1.78369-1.77201
		c1.04471,0,1.77692,0.79666,1.77692,1.76289C83.47338,62.64482,82.73206,63.44852,81.68973,63.44852 M81.68973,60.46271
		c-0.682,0-1.15196,0.5404-1.15196,1.21356c0,0.66867,0.48347,1.2227,1.15869,1.2227c0.6776,0,1.14725-0.54488,1.14725-1.21358
		C82.8437,61.01463,82.36472,60.46271,81.68973,60.46271"/>
	<polygon class="st0" points="86.57972,59.97293 87.16829,59.97293 87.16829,63.38899 86.66871,63.38899 84.78925,60.95742 
		84.78925,63.38899 84.19858,63.38899 84.19858,59.97293 84.75282,59.97293 86.57972,62.3358 	"/>
</g>
</svg>
