<?xml version="1.0" encoding="utf-8"?>
<!-- Generator: Adobe Illustrator 22.0.1, SVG Export Plug-In . SVG Version: 6.00 Build 0)  -->
<svg version="1.1" id="Layer_1" xmlns="http://www.w3.org/2000/svg" xmlns:xlink="http://www.w3.org/1999/xlink" x="0px" y="0px"
	 viewBox="0 0 100 100" style="enable-background:new 0 0 100 100;" xml:space="preserve">
<style type="text/css">
	.st0{fill:#FFFFFF;}
</style>
<path class="st0" d="M17.97006,50.28982h-6.77889c-0.40152,0-0.68558-0.05766-0.85217-0.173
	c-0.16659-0.11533-0.24988-0.30968-0.24988-0.58306c0-0.36735,0.22212-0.64927,0.66636-0.84576
	c0.10252-0.04272,0.1794-0.07689,0.23066-0.10252c0.19649-0.10252,0.32891-0.21999,0.39725-0.3524s0.10252-0.39939,0.10252-0.80091
	v-0.21785V34.61764c0-0.40152-0.03417-0.66849-0.10252-0.80091c-0.06834-0.13242-0.20076-0.24988-0.39725-0.3524
	c-0.05126-0.02563-0.12815-0.0598-0.23066-0.10252c-0.44424-0.19649-0.66636-0.47414-0.66636-0.83295
	c0-0.28192,0.08329-0.48055,0.24988-0.59587c0.16659-0.11533,0.45064-0.173,0.85217-0.173h6.48416v15.87721
	c0,0.27338,0.03417,0.472,0.10252,0.59587s0.20076,0.24134,0.39725,0.3524c0.05126,0.02563,0.12815,0.0598,0.23066,0.10252
	c0.44424,0.19649,0.66636,0.47841,0.66636,0.84576c0,0.27338-0.08329,0.46773-0.24988,0.58306
	C18.65564,50.23215,18.37159,50.28982,17.97006,50.28982z M18.46983,40.397c0.58093-0.04271,1.00167-0.24561,1.26223-0.60869
	c0.26056-0.36308,0.39084-0.9376,0.39084-1.72356v-2.39632c0-0.78596-0.13028-1.36048-0.39084-1.72356
	c-0.26056-0.36308-0.6813-0.56598-1.26223-0.60869V31.76c0.1196-0.00854,0.24561-0.01495,0.37803-0.01922
	c0.13242-0.00427,0.32677-0.00641,0.58306-0.00641c2.28953,0,3.97891,0.38657,5.06815,1.15972s1.63385,1.9713,1.63385,3.59448
	c0,1.30708-0.37589,2.33224-1.12768,3.07549c-0.75179,0.74324-1.89228,1.22165-3.42148,1.43523
	c1.54629,0.14523,2.69959,0.51258,3.45992,1.10205c0.76033,0.58947,1.14049,1.41387,1.14049,2.47321v2.35788
	c0,0.17086,0.02136,0.29687,0.06407,0.37803s0.10679,0.12174,0.19222,0.12174s0.22853-0.12387,0.42929-0.37162
	c0.20076-0.24775,0.40793-0.37162,0.62151-0.37162s0.40793,0.08543,0.58306,0.25629s0.2627,0.36735,0.2627,0.58947
	c0,0.69198-0.39939,1.35407-1.19816,1.98625s-1.76627,0.94828-2.90249,0.94828c-1.36688,0-2.3771-0.36949-3.03064-1.10846
	s-0.98031-1.8816-0.98031-3.42789v-1.60182c0-0.74324-0.13455-1.2964-0.40366-1.65948
	c-0.26911-0.36308-0.71975-0.59587-1.35193-0.69839V40.397z M36.99965,31.76c0.40152,0,0.68985,0.0598,0.86498,0.1794
	c0.17513,0.1196,0.2627,0.31609,0.2627,0.58947c0,0.35881-0.22212,0.63219-0.66636,0.82013
	c-0.1196,0.05126-0.20503,0.0897-0.25629,0.11533c-0.19649,0.10252-0.32891,0.21998-0.39725,0.3524
	c-0.06834,0.13242-0.10252,0.39939-0.10252,0.80091v0.21785v12.64795c0,0.35026,0.02563,0.5852,0.07689,0.7048
	s0.14523,0.22212,0.28192,0.30755c0.06834,0.04271,0.17513,0.09397,0.32036,0.15377c0.4955,0.21357,0.74324,0.50831,0.74324,0.8842
	c0,0.26484-0.08757,0.45705-0.2627,0.57666c-0.17513,0.1196-0.46346,0.1794-0.86498,0.1794h-6.77889
	c-0.40152,0-0.68558-0.05766-0.85217-0.173c-0.16659-0.11533-0.24988-0.30968-0.24988-0.58306
	c0-0.36735,0.22212-0.64927,0.66636-0.84576c0.10252-0.04272,0.1794-0.07689,0.23066-0.10252
	c0.19649-0.10252,0.32891-0.21999,0.39725-0.3524s0.10252-0.39939,0.10252-0.80091v-0.21785V34.61764
	c0-0.40152-0.03417-0.66849-0.10252-0.80091c-0.06834-0.13242-0.20076-0.24988-0.39725-0.3524
	c-0.05126-0.02563-0.12815-0.0598-0.23066-0.10252c-0.44424-0.19649-0.66636-0.47414-0.66636-0.83295
	c0-0.28192,0.0833-0.48055,0.24988-0.59587c0.16659-0.11533,0.45065-0.173,0.85217-0.173H36.99965z M40.66461,50.28982
	c-0.40152,0-0.68558-0.05766-0.85217-0.173c-0.16659-0.11533-0.24988-0.30968-0.24988-0.58306
	c0-0.36735,0.22212-0.64927,0.66636-0.84576c0.10252-0.04272,0.1794-0.07689,0.23066-0.10252
	c0.19649-0.10252,0.32891-0.21999,0.39725-0.3524s0.10252-0.39939,0.10252-0.80091v-0.21785V34.61764
	c0-0.40152-0.03417-0.66849-0.10252-0.80091c-0.06834-0.13242-0.20076-0.24988-0.39725-0.3524
	c-0.05126-0.02563-0.12814-0.0598-0.23066-0.10252c-0.44424-0.19649-0.66636-0.47414-0.66636-0.83295
	c0-0.28192,0.08329-0.48055,0.24988-0.59587c0.16659-0.11533,0.45065-0.173,0.85217-0.173h6.48416v18.52982H40.66461z
	 M47.94327,50.28982v-1.57619c0.65781-0.05126,1.10632-0.23707,1.34552-0.55743c0.2392-0.32037,0.35881-0.94614,0.35881-1.87733
	V35.77095c0-0.93119-0.12174-1.55697-0.36522-1.87733s-0.68985-0.50618-1.33912-0.55743V31.76
	c2.62271,0.19649,4.66022,1.10419,6.11253,2.72309c1.45231,1.6189,2.17847,3.79951,2.17847,6.54182
	c0,2.74231-0.72616,4.92292-2.17847,6.54182C52.60349,49.18563,50.56598,50.09333,47.94327,50.28982z M65.79391,49.05962v1.57619
	c-2.4433-0.2392-4.33986-1.19816-5.68965-2.87686c-1.3498-1.67871-2.0247-3.92339-2.0247-6.73404
	c0-2.80211,0.67063-5.03825,2.01188-6.70841c1.34125-1.67016,3.24208-2.63766,5.70247-2.90249v1.57619
	c-0.46986,0.07689-0.79237,0.27765-0.9675,0.60228c-0.17513,0.32464-0.2627,0.93974-0.2627,1.84529v11.17427
	c0,0.90556,0.08757,1.5228,0.2627,1.8517C65.00155,48.79265,65.32405,48.99128,65.79391,49.05962z M66.57561,50.623v-1.64026
	c0.40152-0.03417,0.6813-0.16018,0.83935-0.37803c0.15804-0.21785,0.23707-0.5916,0.23707-1.12127v-4.01095
	c0-0.33318-0.03204-0.55103-0.09611-0.65354s-0.19435-0.20076-0.39085-0.29473c-0.0598-0.02563-0.13669-0.05553-0.23066-0.0897
	c-0.47841-0.18795-0.71761-0.48268-0.71761-0.8842c0-0.27338,0.0833-0.46346,0.24989-0.57025
	c0.16659-0.10678,0.46773-0.16018,0.90342-0.16018h5.66403c0.33318,0,0.58306,0.06621,0.74965,0.19862
	s0.24988,0.32677,0.24988,0.58306c0,0.19649-0.03417,0.3524-0.10252,0.46773s-0.2093,0.2328-0.42287,0.3524
	c-0.14523,0.08543-0.24348,0.17941-0.29474,0.28192c-0.05125,0.10252-0.07688,0.28619-0.07688,0.55103v0.21785v4.45946
	c-0.98245,0.86284-2.0183,1.51852-3.10753,1.96703S67.78871,50.58883,66.57561,50.623z M73.05976,37.01396v0.28192
	c0,0.50404-0.07903,0.86712-0.23707,1.08923c-0.15805,0.22212-0.42075,0.33318-0.78809,0.33318
	c-0.51258,0-0.93119-0.47841-1.25583-1.43523c-0.24775-0.71762-0.49123-1.29-0.73043-1.71715
	c-0.45277-0.80305-0.97604-1.42242-1.56978-1.85811c-0.59374-0.4357-1.22806-0.6749-1.90295-0.71762v-1.57619
	c0.80304,0.05126,1.63171,0.23066,2.48602,0.53821s1.34553,0.46132,1.47367,0.46132c0.21358,0,0.44424-0.15591,0.69199-0.46773
	c0.24775-0.31182,0.55957-0.46773,0.93546-0.46773c0.32463,0,0.5553,0.06621,0.69199,0.19863
	c0.13669,0.13242,0.20503,0.41647,0.20503,0.85217v0.10252V37.01396z M76.72472,50.28982c-0.40152,0-0.68558-0.05766-0.85217-0.173
	c-0.16659-0.11533-0.24989-0.30968-0.24989-0.58306c0-0.36735,0.22212-0.64927,0.66636-0.84576
	c0.10252-0.04272,0.17941-0.07689,0.23066-0.10252c0.19649-0.10252,0.3289-0.21999,0.39725-0.3524s0.10252-0.39939,0.10252-0.80091
	v-0.21785V34.61764c0-0.40152-0.03417-0.66849-0.10252-0.80091c-0.06834-0.13242-0.20076-0.24988-0.39725-0.3524
	c-0.05125-0.02563-0.12814-0.0598-0.23066-0.10252c-0.44424-0.19649-0.66636-0.47414-0.66636-0.83295
	c0-0.28192,0.0833-0.48055,0.24989-0.59587c0.16659-0.11533,0.45065-0.173,0.85217-0.173h6.48415v18.52982H76.72472z
	 M84.08026,31.76h5.65121v4.9336c0,0.2392-0.06621,0.43142-0.19969,0.57665c-0.13242,0.14523-0.30968,0.21785-0.53287,0.21785
	c-0.40153,0-0.73577-0.35454-1.00167-1.06361c-0.17941-0.46133-0.34599-0.80732-0.50083-1.03798
	c-0.35881-0.5553-0.83508-0.9974-1.42562-1.32631s-1.25368-0.52753-1.99052-0.59587V31.76z M84.08026,41.60156v-1.70433
	c0.38444-0.11106,0.67703-0.24988,0.87779-0.41647c0.20077-0.16659,0.36095-0.39511,0.48055-0.68558
	c0.09398-0.21358,0.20503-0.49123,0.33318-0.83295c0.21358-0.59801,0.49549-0.89702,0.84576-0.89702
	c0.26483,0,0.45492,0.10252,0.57025,0.30755c0.11533,0.20503,0.17299,0.57238,0.17299,1.10205v4.65168
	c0,0.47841-0.05766,0.81586-0.17299,1.01235c-0.11533,0.19649-0.30542,0.29473-0.57025,0.29473
	c-0.3588,0-0.645-0.299-0.85857-0.89702c-0.1196-0.32463-0.22639-0.59374-0.32037-0.80732
	c-0.1196-0.299-0.28191-0.53394-0.48695-0.7048C84.74662,41.85358,84.45615,41.71262,84.08026,41.60156z M84.08026,50.28982
	v-1.70433c0.83081-0.06834,1.54095-0.26697,2.13148-0.59588s1.07001-0.79663,1.43843-1.40319
	c0.1463-0.22212,0.28726-0.57665,0.42395-1.06361c0.23173-0.76033,0.54782-1.1405,0.95041-1.1405
	c0.33424,0,0.56491,0.12815,0.69412,0.38444c0.12814,0.25629,0.19221,0.76887,0.19221,1.53774v3.98532H84.08026z M15.45876,68.58599
	v-1.42502c0.63334-0.04131,1.10318-0.18587,1.40953-0.4337c0.30634-0.24783,0.45952-0.60925,0.45952-1.08425
	c0-0.79168-0.88117-1.5868-2.64352-2.38536l-0.15489-0.07228c-1.72792-0.76328-2.89995-1.51968-3.51608-2.26919
	s-0.9242-1.68145-0.9242-2.79583c0-1.47837,0.46296-2.6874,1.38888-3.62623s2.12548-1.40781,3.59869-1.40781h0.17555v1.30111
	c-0.41993,0.08261-0.75726,0.2702-1.01197,0.56278c-0.25471,0.29258-0.38207,0.63506-0.38207,1.02746
	c0,0.75037,0.91903,1.49042,2.7571,2.22014l0.30979,0.12392c1.50763,0.61269,2.58844,1.3252,3.24244,2.13753
	c0.65399,0.81233,0.98099,1.83463,0.98099,3.06689c0,1.51451-0.51803,2.73645-1.5541,3.66581
	C18.55835,68.12132,17.1798,68.58599,15.45876,68.58599z M14.82886,67.19196v1.36306
	c-0.59204-0.00688-1.20989-0.11015-1.85356-0.30978c-0.64367-0.19965-1.00681-0.29946-1.08942-0.29946
	c-0.17899,0-0.34421,0.10326-0.49566,0.30978c-0.15145,0.20653-0.33044,0.30978-0.53696,0.30978
	c-0.22029,0-0.3924-0.07745-0.51631-0.23234s-0.18587-0.37347-0.18587-0.65572V63.7843c0-0.41993,0.04991-0.70907,0.14973-0.8674
	c0.09982-0.15833,0.27709-0.2375,0.5318-0.2375c0.34421,0,0.59892,0.32355,0.76414,0.97066
	c0.08261,0.31667,0.15834,0.5645,0.22718,0.74349c0.26848,0.70907,0.66776,1.30971,1.19784,1.80193
	C13.55185,66.68769,14.15422,67.01985,14.82886,67.19196z M15.88214,54.34612v-1.2598
	c0.63334,0.00689,1.26152,0.11359,1.88454,0.32011s0.94141,0.30979,0.95518,0.30979c0.15834,0,0.32183-0.10498,0.4905-0.31495
	c0.16866-0.20997,0.35625-0.31495,0.56278-0.31495c0.22718,0,0.38723,0.05766,0.48017,0.17297
	c0.09294,0.11617,0.1394,0.32355,0.1394,0.62215v3.49026c0,0.38551-0.04819,0.64711-0.14457,0.78479
	s-0.2616,0.20652-0.49566,0.20652c-0.33732,0-0.59204-0.29602-0.76414-0.88805c-0.07573-0.27537-0.14457-0.49222-0.20652-0.65055
	c-0.26848-0.66776-0.65227-1.21505-1.15137-1.64187S16.5499,54.47692,15.88214,54.34612z M23.81268,64.16637v-8.50881
	c0-0.32355-0.02582-0.53868-0.07745-0.64539c-0.05163-0.1067-0.16006-0.20136-0.32528-0.28397
	c-0.0413-0.02065-0.10326-0.04819-0.18587-0.08261c-0.36486-0.15834-0.54729-0.38207-0.54729-0.6712
	c0-0.22029,0.06884-0.37863,0.20652-0.47501c0.13768-0.09638,0.37174-0.14457,0.70218-0.14457h5.53486
	c0.41993,0,0.70563,0.04475,0.85708,0.13424c0.15145,0.08949,0.22718,0.24094,0.22718,0.45435
	c0,0.31667-0.24095,0.5645-0.72284,0.74349c-0.07573,0.02754-0.1308,0.04819-0.16522,0.06196
	c-0.19276,0.07573-0.31839,0.15833-0.37691,0.24783c-0.05852,0.08949-0.08777,0.27536-0.08777,0.55762v0.2788v9.15937
	c0,0.72971,0.09466,1.22366,0.28397,1.48181s0.53524,0.41132,1.03778,0.45952l0.01033,1.55926
	c-0.22029,0.00688-0.49222,0.01721-0.81577,0.03098c-0.32355,0.01376-0.51631,0.02065-0.57827,0.02065
	c-1.71415,0-2.97223-0.35281-3.77424-1.05843S23.81268,65.674,23.81268,64.16637z M30.81387,68.4311v-1.45599
	c0.93624-0.1308,1.60401-0.46468,2.00329-1.00165s0.59892-1.37339,0.59892-2.50927v-6.72237
	c0-0.37863-0.05335-0.70735-0.16006-0.98616s-0.26332-0.50771-0.46984-0.6867c-0.11703-0.09638-0.28913-0.20652-0.51631-0.33044
	c-0.3924-0.21341-0.58859-0.44747-0.58859-0.70218c0-0.24095,0.06884-0.41477,0.20652-0.52148s0.35798-0.16006,0.66088-0.16006
	h3.1495c0.3029,0,0.52319,0.05335,0.66088,0.16006s0.20652,0.28053,0.20652,0.52148c0,0.24783-0.17038,0.46812-0.51115,0.66088
	s-0.57999,0.35798-0.71767,0.49566c-0.17899,0.19276-0.30806,0.42682-0.38723,0.70218
	c-0.07917,0.27537-0.11875,0.74005-0.11875,1.39404v5.64845c0,1.78988-0.30806,3.10303-0.9242,3.93946
	C33.29044,67.71342,32.25954,68.23146,30.81387,68.4311z M43.54611,53.3548v12.87681c0,0.32355,0.20652,0.5645,0.61957,0.72284
	c0.02065,0.00688,0.04131,0.01376,0.06196,0.02065c0.2616,0.08949,0.43887,0.18759,0.5318,0.2943
	c0.09294,0.1067,0.1394,0.24955,0.1394,0.42854c0,0.21341-0.07573,0.36486-0.22718,0.45435s-0.4337,0.13424-0.84675,0.13424
	h-5.50388c-0.32355,0-0.55245-0.04646-0.68669-0.1394c-0.13424-0.09294-0.20136-0.24956-0.20136-0.46985
	c0-0.29602,0.17899-0.52319,0.53696-0.68153c0.08261-0.03442,0.14457-0.06196,0.18587-0.08261
	c0.15834-0.08261,0.26504-0.17727,0.32011-0.28397s0.08261-0.32183,0.08261-0.64539v-0.17555V55.65755
	c0-0.32355-0.02753-0.53868-0.08261-0.64539s-0.16178-0.20136-0.32011-0.28397c-0.04131-0.02065-0.10326-0.04819-0.18587-0.08261
	c-0.35798-0.15834-0.53696-0.38207-0.53696-0.6712c0-0.22718,0.06712-0.38723,0.20136-0.48017
	c0.13424-0.09293,0.36314-0.1394,0.68669-0.1394H43.54611z M45.51842,56.50431c0-0.63334-0.10498-1.0963-0.31495-1.38888
	c-0.20997-0.29258-0.54901-0.45608-1.01714-0.4905V53.3548h0.44403c1.87938,0,3.30439,0.39068,4.27506,1.17203
	c0.97066,0.78135,1.456,1.92928,1.456,3.4438c0,1.50763-0.48361,2.64868-1.45084,3.42315s-2.39396,1.1617-4.28022,1.1617h-0.44403
	v-1.27013c0.47501-0.03442,0.81577-0.1962,1.0223-0.48533s0.30979-0.74693,0.30979-1.37339V56.50431z M57.7963,53.3548v12.87681
	c0,0.32355,0.20652,0.5645,0.61958,0.72284c0.02065,0.00688,0.0413,0.01376,0.06195,0.02065
	c0.2616,0.08949,0.43887,0.18759,0.5318,0.2943c0.09293,0.1067,0.1394,0.24955,0.1394,0.42854
	c0,0.21341-0.07573,0.36486-0.22718,0.45435s-0.4337,0.13424-0.84675,0.13424h-5.50388c-0.32355,0-0.55246-0.04646-0.6867-0.1394
	c-0.13424-0.09294-0.20136-0.24956-0.20136-0.46985c0-0.29602,0.17899-0.52319,0.53696-0.68153
	c0.08261-0.03442,0.14457-0.06196,0.18587-0.08261c0.15834-0.08261,0.26504-0.17727,0.32011-0.28397
	s0.08261-0.32183,0.08261-0.64539v-0.17555V55.65755c0-0.32355-0.02754-0.53868-0.08261-0.64539s-0.16178-0.20136-0.32011-0.28397
	c-0.0413-0.02065-0.10326-0.04819-0.18587-0.08261c-0.35798-0.15834-0.53696-0.38207-0.53696-0.6712
	c0-0.22718,0.06712-0.38723,0.20136-0.48017c0.13424-0.09293,0.36314-0.1394,0.6867-0.1394H57.7963z M59.76861,56.50431
	c0-0.63334-0.10498-1.0963-0.31495-1.38888c-0.20997-0.29258-0.54901-0.45608-1.01714-0.4905V53.3548h0.44403
	c1.87937,0,3.30439,0.39068,4.27506,1.17203c0.97066,0.78135,1.45599,1.92928,1.45599,3.4438
	c0,1.50763-0.4836,2.64868-1.45083,3.42315c-0.96722,0.77447-2.39396,1.1617-4.28022,1.1617h-0.44403v-1.27013
	c0.47501-0.03442,0.81577-0.1962,1.0223-0.48533c0.20653-0.28913,0.30979-0.74693,0.30979-1.37339V56.50431z M66.82143,68.28653
	c-0.32355,0-0.55245-0.04646-0.68669-0.1394c-0.13425-0.09294-0.20136-0.24956-0.20136-0.46985
	c0-0.29602,0.17899-0.52319,0.53696-0.68153c0.08261-0.03442,0.14457-0.06196,0.18587-0.08261
	c0.15834-0.08261,0.26505-0.17727,0.32011-0.28397c0.05508-0.1067,0.08261-0.32183,0.08261-0.64539v-0.17555V55.65755
	c0-0.32355-0.02753-0.53868-0.08261-0.64539c-0.05507-0.1067-0.16177-0.20136-0.32011-0.28397
	c-0.0413-0.02065-0.10326-0.04819-0.18587-0.08261c-0.35798-0.15834-0.53696-0.38207-0.53696-0.6712
	c0-0.22718,0.06712-0.38723,0.20136-0.48017c0.13424-0.09293,0.36314-0.1394,0.68669-0.1394H72.284
	c0.32355,0,0.55245,0.04647,0.68669,0.1394c0.13424,0.09294,0.20136,0.25299,0.20136,0.48017
	c0,0.28913-0.17899,0.51287-0.53696,0.6712c-0.08261,0.03442-0.14457,0.06196-0.18587,0.08261
	c-0.15833,0.08261-0.26504,0.17727-0.32011,0.28397c-0.05508,0.1067-0.08261,0.32183-0.08261,0.64539v0.17554v12.45343H66.82143z
	 M72.68672,68.28653v-1.37338c0.59892-0.03442,1.12556-0.2048,1.57992-0.51115c0.45435-0.30634,0.81577-0.73488,1.08425-1.28561
	c0.1308-0.28225,0.26504-0.65743,0.40273-1.12556c0.18587-0.61958,0.41649-0.92936,0.69186-0.92936
	c0.2616,0,0.44058,0.0981,0.53696,0.2943c0.09637,0.1962,0.14457,0.6626,0.14457,1.3992v3.53157H72.68672z M80.56564,62.23536
	l-2.88101-6.74303c-0.01377-0.03442-0.03442-0.07917-0.06196-0.13424c-0.14457-0.35109-0.38551-0.60236-0.72284-0.75381
	c-0.1721-0.07573-0.28913-0.15661-0.35109-0.24266s-0.09294-0.20136-0.09294-0.34593c0-0.25471,0.08089-0.42854,0.24267-0.52148
	c0.16178-0.09293,0.48361-0.1394,0.96551-0.1394h4.82234c0.44059,0,0.74866,0.05507,0.9242,0.16522
	c0.17554,0.11015,0.26332,0.29602,0.26332,0.55761c0,0.20653-0.11359,0.38035-0.34077,0.52148
	c-0.22718,0.14112-0.34077,0.27709-0.34077,0.40789c0,0.07573,0.01205,0.16178,0.03614,0.25816s0.06368,0.20308,0.11875,0.32011
	l2.46797,5.65878v4.98757c0,0.19964,0.04131,0.34937,0.12392,0.44919c0.0826,0.09982,0.22717,0.17727,0.4337,0.23235
	c0.31667,0.07572,0.52492,0.16866,0.62473,0.27881c0.09982,0.11015,0.14973,0.27881,0.14973,0.50598
	c0,0.22029-0.07401,0.37347-0.22202,0.45952s-0.42509,0.12907-0.83126,0.12907h-5.60715c-0.41305,0-0.69186-0.04302-0.83642-0.12907
	c-0.14457-0.08605-0.21686-0.23923-0.21686-0.45952c0-0.36486,0.21686-0.61269,0.65056-0.74348
	c0.09637-0.02754,0.16521-0.04819,0.20652-0.06196c0.18587-0.06196,0.31151-0.14113,0.37691-0.2375
	c0.0654-0.09638,0.0981-0.29258,0.0981-0.5886v-0.25816V62.23536z M85.97659,60.4799l-0.5886-1.31143l1.17719-2.74678
	c0.04131-0.10326,0.07401-0.21169,0.0981-0.32528c0.02409-0.11359,0.03614-0.22202,0.03614-0.32528
	c0-0.22029-0.05335-0.41133-0.16006-0.57311s-0.25987-0.29086-0.45952-0.38723c-0.05507-0.02065-0.13424-0.05507-0.2375-0.10326
	c-0.37862-0.15834-0.56794-0.38895-0.56794-0.69186c0-0.23406,0.08089-0.40273,0.24267-0.50599
	c0.16177-0.10326,0.42165-0.1549,0.77962-0.1549h2.62286c0.37174,0,0.6299,0.04647,0.77447,0.1394
	c0.14457,0.09294,0.21685,0.25988,0.21685,0.50082c0,0.30978-0.21341,0.53352-0.64022,0.6712
	c-0.1721,0.05507-0.29602,0.10326-0.37175,0.14457c-0.23406,0.13768-0.44402,0.33044-0.6299,0.57827
	s-0.37174,0.59204-0.55762,1.03262L85.97659,60.4799z M17.97006,50.28982h-6.77889c-0.40152,0-0.68558-0.05766-0.85217-0.173
	c-0.16659-0.11533-0.24988-0.30968-0.24988-0.58306c0-0.36735,0.22212-0.64927,0.66636-0.84576
	c0.10252-0.04272,0.1794-0.07689,0.23066-0.10252c0.19649-0.10252,0.32891-0.21999,0.39725-0.3524s0.10252-0.39939,0.10252-0.80091
	v-0.21785V34.61764c0-0.40152-0.03417-0.66849-0.10252-0.80091c-0.06834-0.13242-0.20076-0.24988-0.39725-0.3524
	c-0.05126-0.02563-0.12815-0.0598-0.23066-0.10252c-0.44424-0.19649-0.66636-0.47414-0.66636-0.83295
	c0-0.28192,0.08329-0.48055,0.24988-0.59587c0.16659-0.11533,0.45064-0.173,0.85217-0.173h6.48416v15.87721
	c0,0.27338,0.03417,0.472,0.10252,0.59587s0.20076,0.24134,0.39725,0.3524c0.05126,0.02563,0.12815,0.0598,0.23066,0.10252
	c0.44424,0.19649,0.66636,0.47841,0.66636,0.84576c0,0.27338-0.08329,0.46773-0.24988,0.58306
	C18.65564,50.23215,18.37159,50.28982,17.97006,50.28982z M18.46983,40.397c0.58093-0.04271,1.00167-0.24561,1.26223-0.60869
	c0.26056-0.36308,0.39084-0.9376,0.39084-1.72356v-2.39632c0-0.78596-0.13028-1.36048-0.39084-1.72356
	c-0.26056-0.36308-0.6813-0.56598-1.26223-0.60869V31.76c0.1196-0.00854,0.24561-0.01495,0.37803-0.01922
	c0.13242-0.00427,0.32677-0.00641,0.58306-0.00641c2.28953,0,3.97891,0.38657,5.06815,1.15972s1.63385,1.9713,1.63385,3.59448
	c0,1.30708-0.37589,2.33224-1.12768,3.07549c-0.75179,0.74324-1.89228,1.22165-3.42148,1.43523
	c1.54629,0.14523,2.69959,0.51258,3.45992,1.10205c0.76033,0.58947,1.14049,1.41387,1.14049,2.47321v2.35788
	c0,0.17086,0.02136,0.29687,0.06407,0.37803s0.10679,0.12174,0.19222,0.12174s0.22853-0.12387,0.42929-0.37162
	c0.20076-0.24775,0.40793-0.37162,0.62151-0.37162s0.40793,0.08543,0.58306,0.25629s0.2627,0.36735,0.2627,0.58947
	c0,0.69198-0.39939,1.35407-1.19816,1.98625s-1.76627,0.94828-2.90249,0.94828c-1.36688,0-2.3771-0.36949-3.03064-1.10846
	s-0.98031-1.8816-0.98031-3.42789v-1.60182c0-0.74324-0.13455-1.2964-0.40366-1.65948
	c-0.26911-0.36308-0.71975-0.59587-1.35193-0.69839V40.397z M36.99965,31.76c0.40152,0,0.68985,0.0598,0.86498,0.1794
	c0.17513,0.1196,0.2627,0.31609,0.2627,0.58947c0,0.35881-0.22212,0.63219-0.66636,0.82013
	c-0.1196,0.05126-0.20503,0.0897-0.25629,0.11533c-0.19649,0.10252-0.32891,0.21998-0.39725,0.3524
	c-0.06834,0.13242-0.10252,0.39939-0.10252,0.80091v0.21785v12.64795c0,0.35026,0.02563,0.5852,0.07689,0.7048
	s0.14523,0.22212,0.28192,0.30755c0.06834,0.04271,0.17513,0.09397,0.32036,0.15377c0.4955,0.21357,0.74324,0.50831,0.74324,0.8842
	c0,0.26484-0.08757,0.45705-0.2627,0.57666c-0.17513,0.1196-0.46346,0.1794-0.86498,0.1794h-6.77889
	c-0.40152,0-0.68558-0.05766-0.85217-0.173c-0.16659-0.11533-0.24988-0.30968-0.24988-0.58306
	c0-0.36735,0.22212-0.64927,0.66636-0.84576c0.10252-0.04272,0.1794-0.07689,0.23066-0.10252
	c0.19649-0.10252,0.32891-0.21999,0.39725-0.3524s0.10252-0.39939,0.10252-0.80091v-0.21785V34.61764
	c0-0.40152-0.03417-0.66849-0.10252-0.80091c-0.06834-0.13242-0.20076-0.24988-0.39725-0.3524
	c-0.05126-0.02563-0.12815-0.0598-0.23066-0.10252c-0.44424-0.19649-0.66636-0.47414-0.66636-0.83295
	c0-0.28192,0.0833-0.48055,0.24988-0.59587c0.16659-0.11533,0.45065-0.173,0.85217-0.173H36.99965z M40.66461,50.28982
	c-0.40152,0-0.68558-0.05766-0.85217-0.173c-0.16659-0.11533-0.24988-0.30968-0.24988-0.58306
	c0-0.36735,0.22212-0.64927,0.66636-0.84576c0.10252-0.04272,0.1794-0.07689,0.23066-0.10252
	c0.19649-0.10252,0.32891-0.21999,0.39725-0.3524s0.10252-0.39939,0.10252-0.80091v-0.21785V34.61764
	c0-0.40152-0.03417-0.66849-0.10252-0.80091c-0.06834-0.13242-0.20076-0.24988-0.39725-0.3524
	c-0.05126-0.02563-0.12814-0.0598-0.23066-0.10252c-0.44424-0.19649-0.66636-0.47414-0.66636-0.83295
	c0-0.28192,0.08329-0.48055,0.24988-0.59587c0.16659-0.11533,0.45065-0.173,0.85217-0.173h6.48416v18.52982H40.66461z
	 M47.94327,50.28982v-1.57619c0.65781-0.05126,1.10632-0.23707,1.34552-0.55743c0.2392-0.32037,0.35881-0.94614,0.35881-1.87733
	V35.77095c0-0.93119-0.12174-1.55697-0.36522-1.87733s-0.68985-0.50618-1.33912-0.55743V31.76
	c2.62271,0.19649,4.66022,1.10419,6.11253,2.72309c1.45231,1.6189,2.17847,3.79951,2.17847,6.54182
	c0,2.74231-0.72616,4.92292-2.17847,6.54182C52.60349,49.18563,50.56598,50.09333,47.94327,50.28982z M65.79391,49.05962v1.57619
	c-2.4433-0.2392-4.33986-1.19816-5.68965-2.87686c-1.3498-1.67871-2.0247-3.92339-2.0247-6.73404
	c0-2.80211,0.67063-5.03825,2.01188-6.70841c1.34125-1.67016,3.24208-2.63766,5.70247-2.90249v1.57619
	c-0.46986,0.07689-0.79237,0.27765-0.9675,0.60228c-0.17513,0.32464-0.2627,0.93974-0.2627,1.84529v11.17427
	c0,0.90556,0.08757,1.5228,0.2627,1.8517C65.00155,48.79265,65.32405,48.99128,65.79391,49.05962z M66.57561,50.623v-1.64026
	c0.40152-0.03417,0.6813-0.16018,0.83935-0.37803c0.15804-0.21785,0.23707-0.5916,0.23707-1.12127v-4.01095
	c0-0.33318-0.03204-0.55103-0.09611-0.65354s-0.19435-0.20076-0.39085-0.29473c-0.0598-0.02563-0.13669-0.05553-0.23066-0.0897
	c-0.47841-0.18795-0.71761-0.48268-0.71761-0.8842c0-0.27338,0.0833-0.46346,0.24989-0.57025
	c0.16659-0.10678,0.46773-0.16018,0.90342-0.16018h5.66403c0.33318,0,0.58306,0.06621,0.74965,0.19862
	s0.24988,0.32677,0.24988,0.58306c0,0.19649-0.03417,0.3524-0.10252,0.46773s-0.2093,0.2328-0.42287,0.3524
	c-0.14523,0.08543-0.24348,0.17941-0.29474,0.28192c-0.05125,0.10252-0.07688,0.28619-0.07688,0.55103v0.21785v4.45946
	c-0.98245,0.86284-2.0183,1.51852-3.10753,1.96703S67.78871,50.58883,66.57561,50.623z M73.05976,37.01396v0.28192
	c0,0.50404-0.07903,0.86712-0.23707,1.08923c-0.15805,0.22212-0.42075,0.33318-0.78809,0.33318
	c-0.51258,0-0.93119-0.47841-1.25583-1.43523c-0.24775-0.71762-0.49123-1.29-0.73043-1.71715
	c-0.45277-0.80305-0.97604-1.42242-1.56978-1.85811c-0.59374-0.4357-1.22806-0.6749-1.90295-0.71762v-1.57619
	c0.80304,0.05126,1.63171,0.23066,2.48602,0.53821s1.34553,0.46132,1.47367,0.46132c0.21358,0,0.44424-0.15591,0.69199-0.46773
	c0.24775-0.31182,0.55957-0.46773,0.93546-0.46773c0.32463,0,0.5553,0.06621,0.69199,0.19863
	c0.13669,0.13242,0.20503,0.41647,0.20503,0.85217v0.10252V37.01396z M76.72472,50.28982c-0.40152,0-0.68558-0.05766-0.85217-0.173
	c-0.16659-0.11533-0.24989-0.30968-0.24989-0.58306c0-0.36735,0.22212-0.64927,0.66636-0.84576
	c0.10252-0.04272,0.17941-0.07689,0.23066-0.10252c0.19649-0.10252,0.3289-0.21999,0.39725-0.3524s0.10252-0.39939,0.10252-0.80091
	v-0.21785V34.61764c0-0.40152-0.03417-0.66849-0.10252-0.80091c-0.06834-0.13242-0.20076-0.24988-0.39725-0.3524
	c-0.05125-0.02563-0.12814-0.0598-0.23066-0.10252c-0.44424-0.19649-0.66636-0.47414-0.66636-0.83295
	c0-0.28192,0.0833-0.48055,0.24989-0.59587c0.16659-0.11533,0.45065-0.173,0.85217-0.173h6.48415v18.52982H76.72472z
	 M84.08026,31.76h5.65121v4.9336c0,0.2392-0.06621,0.43142-0.19969,0.57665c-0.13242,0.14523-0.30968,0.21785-0.53287,0.21785
	c-0.40153,0-0.73577-0.35454-1.00167-1.06361c-0.17941-0.46133-0.34599-0.80732-0.50083-1.03798
	c-0.35881-0.5553-0.83508-0.9974-1.42562-1.32631s-1.25368-0.52753-1.99052-0.59587V31.76z M84.08026,41.60156v-1.70433
	c0.38444-0.11106,0.67703-0.24988,0.87779-0.41647c0.20077-0.16659,0.36095-0.39511,0.48055-0.68558
	c0.09398-0.21358,0.20503-0.49123,0.33318-0.83295c0.21358-0.59801,0.49549-0.89702,0.84576-0.89702
	c0.26483,0,0.45492,0.10252,0.57025,0.30755c0.11533,0.20503,0.17299,0.57238,0.17299,1.10205v4.65168
	c0,0.47841-0.05766,0.81586-0.17299,1.01235c-0.11533,0.19649-0.30542,0.29473-0.57025,0.29473
	c-0.3588,0-0.645-0.299-0.85857-0.89702c-0.1196-0.32463-0.22639-0.59374-0.32037-0.80732
	c-0.1196-0.299-0.28191-0.53394-0.48695-0.7048C84.74662,41.85358,84.45615,41.71262,84.08026,41.60156z M84.08026,50.28982
	v-1.70433c0.83081-0.06834,1.54095-0.26697,2.13148-0.59588s1.07001-0.79663,1.43843-1.40319
	c0.1463-0.22212,0.28726-0.57665,0.42395-1.06361c0.23173-0.76033,0.54782-1.1405,0.95041-1.1405
	c0.33424,0,0.56491,0.12815,0.69412,0.38444c0.12814,0.25629,0.19221,0.76887,0.19221,1.53774v3.98532H84.08026z"/>
</svg>
