<?xml version="1.0" encoding="utf-8"?>
<!-- Generator: Adobe Illustrator 22.0.1, SVG Export Plug-In . SVG Version: 6.00 Build 0)  -->
<svg version="1.1" id="Layer_1" xmlns="http://www.w3.org/2000/svg" xmlns:xlink="http://www.w3.org/1999/xlink" x="0px" y="0px"
	 viewBox="0 0 100 100" style="enable-background:new 0 0 100 100;" xml:space="preserve">
<style type="text/css">
	.st0{fill:#FFFFFF;}
	.st1{fill:none;stroke:#FFFFFF;stroke-width:0.40372;}
</style>
<g>
	<polygon class="st0" points="24.33877,50.74088 22.79978,50.74088 22.79978,44.81809 22.06925,44.81809 22.06925,43.35414 
		22.79978,43.35414 22.79978,40.93303 24.33877,40.93303 24.33877,43.35414 25.65525,43.35414 25.65525,44.81809 24.33877,44.81809 
			"/>
	<path class="st0" d="M53.37232,44.26228c0.65588-0.77733,1.37896-1.05235,2.31084-1.05235
		c1.56836,0,2.28474,1.03743,2.39173,3.00378v4.52717h-1.44912v-4.5465c-0.07389-1.33611-0.90845-1.57993-1.29304-1.57993
		c-1.02845,0-1.63746,0.69416-1.63746,2.02281v4.10361h-1.4584v-4.56879c-0.02565-1.24252-0.89215-1.55763-1.34699-1.55763
		c-0.75129,0-1.56836,0.38353-1.52856,2.02281v4.10361h-1.50299v-7.38675h1.51525v0.71638h0.03158
		c0.41389-0.65101,1.25591-0.86058,1.86453-0.86058C52.08673,43.20993,52.85881,43.46706,53.37232,44.26228L53.37232,44.26228z"/>
	<path class="st0" d="M39.56642,45.76489c-0.67477-0.98394-1.46587-1.12517-2.2235-1.12517
		c-1.21838,0-2.29775,1.16375-2.29775,2.43161c0,1.40749,1.01323,2.43594,2.33382,2.43594c1.3027,0,1.79315-0.65542,2.13163-1.10721
		l0.00259,1.88454c-0.4581,0.33886-1.21831,0.68518-2.14655,0.68518c-2.15248,0-3.91921-1.65572-3.91921-3.83902
		c0-2.26512,1.75265-3.93118,3.99509-3.93118c0.96307,0,1.50184,0.21847,2.04281,0.58852L39.56642,45.76489z"/>
	<path class="st0" d="M16.84503,43.35414v4.09166c0,1.17418,0.23187,2.15066,1.63898,2.15066
		c1.40528,0,1.63822-0.9586,1.63746-2.15066v-4.09166h1.50299v4.24629c-0.01035,1.63046-0.76651,3.32476-3.14045,3.32476
		c-2.08415,0-3.1855-1.30348-3.1855-3.32476v-4.24629H16.84503z"/>
	<path class="st0" d="M29.2156,43.24265c-2.17622,0-3.92113,1.66912-3.92113,3.85835c0,2.18482,1.74491,3.85835,3.92113,3.85835
		c2.1681,0,3.91154-1.67353,3.91154-3.85835C33.12714,44.91177,31.3837,43.24265,29.2156,43.24265 M29.23714,49.44335
		c-1.31937,0-2.38321-1.01064-2.38321-2.33047c0-1.32127,1.06384-2.33489,2.38321-2.33489c1.31054,0,2.381,1.01361,2.381,2.33489
		C31.61814,48.4327,30.54768,49.44335,29.23714,49.44335"/>
	<path class="st0" d="M45.7318,43.35414v1.14442h-0.05572c-0.77589-0.84719-1.44059-1.18156-2.53152-1.18156
		c-2.05584,0-3.31029,1.71218-3.31029,3.68295c0,2.11794,1.19312,3.88514,3.35678,3.88514
		c1.06156,0,1.72664-0.38201,2.48503-1.11178h0.05572v0.96758h1.42278v-7.38675H45.7318z M43.41212,49.76889
		c-1.43945,0-2.15142-1.33322-2.15142-2.71842c0-1.18011,0.87504-2.3498,2.15142-2.3498c1.5918,0,2.37134,1.15637,2.37134,2.45679
		C45.78346,48.51298,45.06001,49.76889,43.41212,49.76889"/>
	<path class="st0" d="M13.25972,43.35414v1.14442h-0.05866c-0.77658-0.84719-1.44061-1.18156-2.5326-1.18156
		c-2.05104,0-3.30923,1.71218-3.30923,3.68295c0,2.11794,1.19571,3.88514,3.35786,3.88514
		c1.05791,0,1.72376-0.38201,2.48397-1.11178h0.05866v0.96758h1.42423v-7.38675H13.25972z M10.93708,49.76889
		c-1.44128,0-2.15507-1.33322-2.15507-2.71842c0-1.18011,0.8806-2.3498,2.15507-2.3498c1.59294,0,2.37286,1.15637,2.37286,2.45679
		C13.30994,48.51298,12.58496,49.76889,10.93708,49.76889"/>
	<line class="st1" x1="37.40943" y1="47.10397" x2="21.02885" y2="47.10397"/>
	<line class="st1" x1="29.22268" y1="42.14731" x2="29.22268" y2="52.05774"/>
	<path class="st1" d="M32.39959,47.11736c0,1.7523-1.41496,3.09891-3.15979,3.09891c-1.74308,0-3.16762-1.34661-3.16762-3.09891
		c0-1.75525,1.42454-3.09737,3.16762-3.09737C30.98463,44.01999,32.39959,45.36211,32.39959,47.11736z"/>
	<path class="st0" d="M49.39588,52.31929h0.03225c0.41176-0.65093,1.15858-1.15926,1.96749-1.15926
		c0.9694,0,1.66683,0.49342,2.14502,1.31831c0.45963-0.79362,1.3473-1.31831,2.28482-1.31831
		c1.95333,0,2.46128,1.52643,2.46128,3.20886v4.44696h-1.42682v-4.21061c0-0.95274-0.12898-2.17295-1.38223-2.17295
		c-1.52498,0-1.63609,1.58586-1.63609,2.72876v3.65479H52.4122v-3.9416c0-0.96613-0.04718-2.44196-1.36587-2.44196
		c-1.52489,0-1.65046,1.5695-1.65046,2.72876v3.65479h-1.4295v-7.43438h1.4295V52.31929z"/>
	<path class="st0" d="M60.19914,55.33943c0.01491,1.26778,0.87321,2.45832,2.23801,2.45832
		c1.09686,0,1.68281-0.55444,2.22417-1.44615l1.20538,0.68365c-0.69666,1.28711-2.00013,2.03027-3.44552,2.03027
		c-2.2696,0-3.65144-1.71074-3.65144-3.90294c0-2.2874,1.22318-4.00103,3.62055-4.00103c2.36692,0,3.47642,1.74483,3.47642,3.95347
		v0.22441H60.19914z M64.43835,54.2574c-0.17387-1.11026-0.90434-1.85783-2.04807-1.85783
		c-1.10988,0-1.93804,0.79073-2.11162,1.85783H64.43835z"/>
	<path class="st0" d="M72.46614,57.65506h-0.03051c-0.5737,0.84118-1.47735,1.4119-2.52665,1.4119
		c-2.28551,0-3.55587-1.88751-3.55587-4.01442c0-2.03469,1.34951-3.89252,3.49347-3.89252c1.1117,0,2.00158,0.5737,2.58905,1.46099
		h0.03051v-4.38745h1.43018v10.58229h-1.43018V57.65506z M72.54529,55.09569c0-1.44318-0.87139-2.66339-2.41-2.66339
		c-1.47848,0-2.35315,1.28414-2.35315,2.66339c0,1.39859,0.84232,2.70053,2.35315,2.70053
		C71.68919,57.79622,72.54529,56.5582,72.54529,55.09569"/>
	<path class="st0" d="M76.30958,49.05098c0,0.54105-0.44585,0.96758-0.98317,0.96758c-0.5406,0-0.98615-0.42653-0.98615-0.96758
		c0-0.55581,0.44555-1.00021,0.98615-1.00021C75.86372,48.05077,76.30958,48.49518,76.30958,49.05098 M76.03982,58.81585h-1.42789
		v-7.43286h1.42789V58.81585z"/>
	<path class="st0" d="M82.63371,53.49499c-0.57263-0.65101-1.27006-1.0003-2.12874-1.0003c-1.39524,0-2.47575,1.2381-2.47575,2.601
		c0,1.52788,1.06346,2.63958,2.57239,2.63958c0.8252,0,1.49181-0.38049,2.0321-0.98538V58.575
		c-0.65208,0.34929-1.30164,0.49197-2.04845,0.49197c-2.1919,0-3.98582-1.68243-3.98582-3.90439
		c0-2.30376,1.77793-4.00103,4.06458-4.00103c0.66805,0,1.39706,0.15752,1.9697,0.49342V53.49499z"/>
	<path class="st0" d="M90.52246,58.81585h-1.42941v-1.16079h-0.03233c-0.57295,0.84118-1.46062,1.4119-2.52408,1.4119
		c-2.27211,0-3.55777-1.88751-3.55777-4.01442c0-2.03469,1.34882-3.89252,3.50906-3.89252c1.09504,0,1.98492,0.5737,2.57278,1.46099
		h0.03233v-1.23803h1.42941V58.81585z M89.1722,55.09569c0-1.44318-0.87396-2.66339-2.41373-2.66339
		c-1.4759,0-2.35124,1.28414-2.35124,2.66339c0,1.39859,0.84308,2.70053,2.35124,2.70053
		C88.31382,57.79622,89.1722,56.5582,89.1722,55.09569"/>
	<rect x="91.21205" y="48.23356" class="st0" width="1.42872" height="10.58229"/>
</g>
</svg>
