<?xml version="1.0" encoding="utf-8"?>
<!-- Generator: Adobe Illustrator 22.0.1, SVG Export Plug-In . SVG Version: 6.00 Build 0)  -->
<svg version="1.1" id="Layer_1" xmlns="http://www.w3.org/2000/svg" xmlns:xlink="http://www.w3.org/1999/xlink" x="0px" y="0px"
	 viewBox="0 0 100 100" style="enable-background:new 0 0 100 100;" xml:space="preserve">
<style type="text/css">
	.st0{fill:#FFFFFF;}
</style>
<g>
	<path class="st0" d="M33.7001,50.39378l0.75489-1.24907c1.76696-2.77061,5.29422-6.03364,9.67245-7.35983
		c-2.30577,1.88379-4.26158,4.34377-5.66489,7.35983l-0.54038,1.24907c-0.66916,1.6143-1.21815,3.73648-1.46339,5.93773h1.30037
		c0.24366-2.06386,0.78405-4.21521,1.54403-5.93773l0.585-1.24907c1.60411-3.18749,4.06939-6.10743,7.40973-8.02354
		c-1.27293,2.08069-2.7158,5.60798-3.29729,8.02354l-0.29689,1.24907c-0.32588,1.17511-0.68971,3.80518-0.85098,5.93773h1.28842
		c0.15794-2.08283,0.51298-4.56867,0.87839-5.93773l0.31394-1.24907c0.75664-2.72599,2.17207-6.05068,3.56344-8.14212V56.3315
		h1.26945V41.00259c1.39137,2.09144,2.8068,5.41614,3.55993,8.14212l0.31569,1.24907
		c0.36875,1.36906,0.72397,3.85489,0.87663,5.93773h1.28842c-0.15614-2.13255-0.52331-4.76262-0.84747-5.93773l-0.30375-1.24907
		c-0.57464-2.41557-2.01572-5.94285-3.28868-8.02354c3.34015,1.91611,5.797,4.83605,7.40955,8.02354l0.57991,1.24907
		c0.76002,1.72586,1.30037,3.87386,1.54227,5.93773h1.36572c-0.02916-0.06869-0.05499-0.13721-0.08064-0.19395
		c-0.25737-2.13079-0.79599-4.18095-1.44635-5.74377l-0.53687-1.24907c-1.40683-3.01606-3.36264-5.47604-5.67175-7.35983
		c4.38667,1.32619,7.91392,4.58922,9.67421,7.35983l0.74807,1.24907c1.00361,1.83566,1.67083,3.8823,1.96773,5.93773h1.2849
		c-1.26435-9.40841-9.32074-16.65176-19.07225-16.65176c-9.75484,0-17.81317,7.24335-19.07576,16.65176h1.28842
		C32.03767,54.27608,32.7051,52.22943,33.7001,50.39378"/>
	<path class="st0" d="M49.53163,38.40871c10.45316,0,19.07752,7.81958,20.35223,17.92279h1.83042
		c0.05144-0.12877,0.07217-0.27107,0.04124-0.4204l-0.31235-1.75326c-0.07203-0.41864-0.44254-0.6948-0.8285-0.62629
		c-0.02073,0-0.03953,0.00861-0.06008,0.01212c-0.03777-0.15442-0.0806-0.31921-0.1235-0.48048
		c0.01704-0.00175,0.03602-0.00334,0.05833-0.01177c0.36366-0.13738,0.54548-0.56287,0.39967-0.95217l-0.60907-1.67807
		c-0.13896-0.39457-0.55918-0.60381-0.91949-0.46836c-0.01546,0.00175-0.02917,0.01036-0.04111,0.0137
		c-0.06517-0.14915-0.13737-0.30023-0.20765-0.44938c0.01037-0.00527,0.02565-0.00861,0.03602-0.01725
		c0.33976-0.19392,0.4427-0.64681,0.23681-1.00695l-0.89209-1.5493c-0.21271-0.36366-0.65366-0.49752-0.98994-0.30027
		c-0.0137,0.00513-0.01546,0.01374-0.02406,0.01374c-0.09258-0.13369-0.18867-0.2709-0.28477-0.40828l0.02055-0.00843
		c0.29848-0.2523,0.3243-0.72063,0.05657-1.03983l-1.14594-1.36378c-0.26756-0.31921-0.73258-0.37911-1.03281-0.12195h-0.00509
		c-0.11665-0.11311-0.2333-0.23151-0.35171-0.34641l0.00861-0.00527c0.2521-0.30023,0.19377-0.76683-0.12522-1.03618
		l-1.36575-1.14433c-0.32076-0.27283-0.78563-0.24191-1.03439,0.05323c-0.13211-0.09434-0.26931-0.19202-0.40669-0.28829
		c0.19219-0.33273,0.05499-0.77544-0.30533-0.98467l-1.54403-0.88699c-0.35522-0.21099-0.79951-0.11156-0.99855,0.21468
		c-0.15266-0.07378-0.30357-0.14581-0.45623-0.21116c0.11823-0.36717-0.08749-0.76525-0.47693-0.90755l-1.67617-0.61083
		c-0.38087-0.14075-0.79599,0.03092-0.94356,0.37911c-0.15794-0.03918-0.31921-0.08749-0.48557-0.1235
		c0.04796-0.37911-0.22645-0.73943-0.62278-0.80109l-1.76008-0.31235c-0.40163-0.07713-0.7825,0.17006-0.85787,0.54038
		c-0.1716-0.02055-0.33625-0.03426-0.50788-0.0429c-0.01546-0.38083-0.34485-0.68616-0.75488-0.68616h-1.78418
		c-0.41003,0-0.73943,0.30533-0.75488,0.68616c-0.16988,0.00864-0.33625,0.02235-0.50261,0.0429
		c-0.08239-0.37033-0.45817-0.61241-0.86293-0.54038l-1.75853,0.31235c-0.39967,0.06166-0.67425,0.42198-0.62278,0.80109
		c-0.163,0.03601-0.3294,0.08432-0.49242,0.12701c-0.14054-0.3517-0.55409-0.52338-0.94005-0.38263l-1.67456,0.61083
		c-0.39106,0.1423-0.59871,0.54038-0.47169,0.90755c-0.15618,0.06851-0.30884,0.13738-0.46147,0.21116
		c-0.19907-0.32623-0.63827-0.42567-0.99507-0.21468l-1.54913,0.88699c-0.35855,0.20923-0.49242,0.65194-0.30375,0.98994
		c-0.1372,0.091-0.26931,0.18868-0.40318,0.28302c-0.2521-0.29514-0.7136-0.31745-1.03281-0.05323l-1.3673,1.14946
		c-0.3243,0.26773-0.38087,0.73082-0.12526,1.03105c0,0,0,0.00527,0.00861,0.00527c-0.12016,0.11999-0.23327,0.2333-0.34995,0.35167
		l-0.0137-0.00527c-0.29689-0.2554-0.75664-0.19725-1.02596,0.12195l-1.14946,1.36905
		c-0.26773,0.31394-0.24191,0.78226,0.05832,1.03456c0.00861,0.00527,0.0137,0.00843,0.0188,0.00843
		c-0.0961,0.14265-0.18865,0.27458-0.28477,0.41179c-0.00861-0.00351-0.01019-0.01212-0.0188-0.01725
		c-0.33625-0.19725-0.78229-0.06339-0.98994,0.30027l-0.89209,1.5493c-0.21099,0.36014-0.10804,0.81303,0.23154,1.00695
		l0.03601,0.01725c-0.06693,0.14915-0.1372,0.30023-0.20748,0.45465c-0.01212-0.00861-0.02231-0.01722-0.03774-0.01897
		c-0.36035-0.13545-0.78233,0.07378-0.92304,0.46836l-0.61414,1.67807c-0.14075,0.39439,0.04617,0.82322,0.40824,0.95217
		c0.0188,0.00843,0.03777,0.01001,0.06008,0.01177c-0.04462,0.16127-0.08573,0.32606-0.12701,0.48557
		c-0.02055-0.00861-0.03601-0.01722-0.05832-0.01722c-0.38263-0.06851-0.75822,0.20765-0.83201,0.62629l-0.31236,1.75326
		c-0.02213,0.15442-0.00685,0.29514,0.04462,0.4204h1.83056C30.45235,46.22829,39.08023,38.40871,49.53163,38.40871"/>
	<polygon class="st0" points="10.31814,63.38934 10.08311,58.95806 11.07302,58.95806 11.14681,62.36515 12.967,58.95806 
		14.06499,58.95806 14.11646,62.36515 16.01398,58.95806 16.96103,58.95806 14.36873,63.38934 13.22613,63.38934 13.20715,60.09205 
		11.45565,63.38934 	"/>
	<path class="st0" d="M20.92747,61.17651c-0.3775,1.37064-1.18723,2.30893-2.86158,2.30893
		c-1.52526,0-2.00398-0.77702-1.57498-2.32122c0.49576-1.78421,1.60411-2.29895,2.84615-2.29895
		C20.52078,58.86526,21.45064,59.29764,20.92747,61.17651 M18.27158,62.72546c0.87154,0,1.38118-0.62102,1.64013-1.54052
		c0.17673-0.65194,0.29514-1.54913-0.78054-1.54913c-0.82006,0-1.36554,0.57974-1.62976,1.5284
		C17.2646,62.02205,17.34699,62.72546,18.27158,62.72546"/>
	<path class="st0" d="M20.92747,63.38934l1.23698-4.43129h2.28501c1.03281,0,1.4532,0.37402,1.18389,1.33831
		c-0.16812,0.61399-0.58852,1.09974-1.23009,1.24028l0.57464,1.85269h-1.04475l-0.49928-1.72761h-1.09113l-0.4803,1.72761H20.92747z
		 M22.87293,59.75229l-0.31218,1.1203h1.14419c0.61417,0,0.8682-0.12526,0.98819-0.56603
		c0.07203-0.26601,0.16637-0.55426-0.67934-0.55426H22.87293z"/>
	<path class="st0" d="M28.50005,63.38934h-1.18723c-1.09623,0-1.80473-0.21099-1.36378-1.79437l0.73416-2.63692h0.92477
		l-0.67425,2.43805c-0.24876,0.87487-0.34134,1.26418,0.6623,1.26418h1.10484L28.50005,63.38934z"/>
	<path class="st0" d="M28.99423,63.38934l1.22834-4.43129h2.02609c1.45478,0,1.87852,0.78229,1.45478,2.30401
		c-0.26928,0.97782-0.90404,2.12728-2.66432,2.12728H28.99423z M30.94305,59.72998l-0.80285,2.89253h1.0774
		c0.74118,0,1.13224-0.16816,1.48574-1.446c0.28123-1.01577,0.21784-1.44653-0.68465-1.44653H30.94305z"/>
	<path class="st0" d="M36.13622,63.38934l1.23185-4.43129h2.27485c0.74118,0.01019,1.6143,0.07378,1.30036,1.21973
		c-0.11837,0.41196-0.43058,0.75665-0.93496,0.99873c0.28477,0.15583,0.55584,0.41846,0.40142,0.97431
		c-0.28302,1.02069-1.00365,1.23853-1.83566,1.23853H36.13622z M38.07658,59.75229l-0.28144,1.02596h1.35535
		c0.3705,0,0.64157-0.10804,0.75664-0.50613c0.10119-0.34995-0.06008-0.51983-0.47521-0.51983H38.07658z M37.28744,62.60881h1.3673
		c0.31393,0,0.63982-0.08573,0.75998-0.5181c0.09613-0.35168-0.05481-0.53175-0.46836-0.53175H37.5773L37.28744,62.60881z"/>
	<polygon class="st0" points="43.00714,58.95806 41.77547,63.38934 40.80099,63.38934 42.03442,58.95806 	"/>
	<path class="st0" d="M47.07495,59.71452h-1.52875c-0.64667,0-1.18547,0.33467-1.53717,1.61272
		c-0.33449,1.2009,0.10295,1.29527,0.72748,1.29527h1.53209l-0.21275,0.76683h-1.56807c-1.42232,0-1.8529-0.78742-1.48064-2.13062
		c0.37753-1.35535,1.12029-2.30067,2.73811-2.30067h1.54403L47.07495,59.71452z"/>
	<polygon class="st0" points="48.25357,61.44056 47.27382,58.95981 48.31014,58.95981 48.9345,60.65826 50.5112,58.95981 
		51.58867,58.95981 49.19714,61.44056 48.65324,63.3911 47.71302,63.3911 	"/>
	<path class="st0" d="M54.92897,59.71452h-1.52875c-0.65018,0-1.18371,0.33467-1.53717,1.61272
		c-0.33625,1.2009,0.09609,1.29527,0.72924,1.29527h1.53033l-0.2145,0.76683h-1.56458c-1.42404,0-1.85284-0.78742-1.48236-2.13062
		c0.37577-1.35535,1.12205-2.30067,2.73811-2.30067h1.54245L54.92897,59.71452z"/>
	<path class="st0" d="M57.53321,63.38934h-1.18213c-1.09798,0-1.80825-0.21099-1.3673-1.79437l0.73609-2.63692h0.92459
		l-0.67583,2.43805c-0.24876,0.87487-0.34151,1.26418,0.66037,1.26418h1.10662L57.53321,63.38934z"/>
	<path class="st0" d="M62.39526,59.72998h-1.52699c-0.66055,0-1.10659,0.33976-1.33989,1.03105h2.57859l-0.2145,0.77562h-2.57842
		c-0.22135,0.80285,0.04111,1.08586,0.74628,1.08586h1.53191l-0.22293,0.76683h-1.55615c-1.42211,0-1.85442-0.78742-1.47885-2.13062
		c0.37226-1.35535,1.11696-2.30067,2.73126-2.30067h1.54403L62.39526,59.72998z"/>
	<path class="st0" d="M64.58772,63.38934l1.2336-4.43129h2.28503c1.03632,0,1.45145,0.37402,1.18389,1.33831
		c-0.17339,0.61399-0.59028,1.09974-1.23533,1.24028l0.57988,1.85269h-1.04652l-0.49751-1.72761h-1.09113l-0.48382,1.72761H64.58772
		z M66.52456,59.75229l-0.30709,1.1203h1.13927c0.6175,0,0.86802-0.12526,0.98994-0.56603
		c0.0754-0.26601,0.16813-0.55426-0.67776-0.55426H66.52456z"/>
	<path class="st0" d="M73.57748,59.72998h-1.53033c-0.66055,0-1.09798,0.33976-1.33479,1.03105h2.57684l-0.21275,0.77562h-2.58369
		c-0.21784,0.80285,0.04128,1.08586,0.75313,1.08586h1.53033l-0.21609,0.76683h-1.56458c-1.41895,0-1.85287-0.78742-1.48236-2.13062
		c0.3758-1.35535,1.12539-2.30067,2.73635-2.30067h1.54244L73.57748,59.72998z"/>
	<path class="st0" d="M76.3242,63.38934h-1.18214c-1.10132,0-1.80824-0.21099-1.36396-1.79437l0.731-2.63692h0.92459
		l-0.67583,2.43805c-0.24876,0.87487-0.34152,1.26418,0.66037,1.26418h1.11011L76.3242,63.38934z"/>
	<polygon class="st0" points="79.02629,58.95806 77.79447,63.38934 76.8182,63.38934 78.04654,58.95806 	"/>
	<path class="st0" d="M83.09217,59.72998H81.5636c-0.66389,0-1.10484,0.33976-1.33989,1.03105h2.58369l-0.21784,0.77562h-2.57508
		c-0.22662,0.80285,0.0376,1.08586,0.74277,1.08586h1.52857l-0.21433,0.76683h-1.56806c-1.41722,0-1.85291-0.78742-1.47713-2.13062
		c0.37563-1.35535,1.12187-2.30067,2.73635-2.30067h1.54403L83.09217,59.72998z"/>
	<path class="st0" d="M82.85887,63.38934l0.55936-2.03297c0.61241-2.19084,1.44617-2.39832,2.85124-2.39832h1.41702
		l-0.21275,0.77193h-1.49765c-0.73592,0-1.17352,0.23678-1.4583,1.08252h2.65572l-0.21099,0.75664h-2.65744l-0.5044,1.82019
		H82.85887z"/>
	<path class="st0" d="M89.0573,58.47248c0.48206,0,0.85959,0.38948,0.85959,0.87347c0,0.49734-0.37753,0.87839-0.85959,0.87839
		c-0.47855,0-0.87326-0.38104-0.87326-0.87839C88.18404,58.86196,88.57875,58.47248,89.0573,58.47248 M89.0573,58.60811
		c-0.38596,0-0.6999,0.3294-0.6999,0.73784c0,0.41319,0.31393,0.74101,0.6999,0.74101
		c0.38947,0.00509,0.70007-0.32782,0.70007-0.73785C89.75737,58.9375,89.44677,58.60811,89.0573,58.60811 M88.89426,59.85542
		h-0.15775v-0.96939c0.07712-0.01725,0.15952-0.02916,0.27441-0.02916c0.14932,0,0.24542,0.03426,0.3055,0.07379
		c0.06008,0.04111,0.08924,0.10804,0.08924,0.20414c0,0.12526-0.08591,0.20589-0.19215,0.23664V59.38
		c0.08746,0.01725,0.14405,0.08928,0.16299,0.23509c0.02565,0.15091,0.0462,0.21099,0.06166,0.24033h-0.16302
		c-0.02055-0.02934-0.04462-0.12016-0.06163-0.24893c-0.02586-0.12175-0.09103-0.17146-0.21278-0.17146h-0.10646V59.85542z
		 M88.89426,59.31837h0.11156c0.12192,0,0.23682-0.04972,0.23682-0.16813c0-0.08749-0.06342-0.1697-0.23682-0.1697
		c-0.05481,0-0.08569,0.00316-0.11156,0.00668V59.31837z"/>
</g>
</svg>
